<svg width="205" height="156" viewBox="0 0 205 156" fill="none" xmlns="http://www.w3.org/2000/svg">
<g opacity="0.5" filter="url(#filter0_d_1582_491)">
<path d="M133.4 71.345L140.531 75.4483L139.783 76.7484L141.096 77.5043L139.785 78.2639L140.537 79.5619L133.418 83.6858L132.666 82.3879L125.547 86.5118L126.299 87.8097L119.18 91.9337L118.428 90.6357L111.309 94.7596L112.061 96.0576L104.941 100.182L104.19 98.8836L97.0705 103.007L97.8224 104.305L90.7034 108.429L89.9515 107.131L82.8325 111.255L83.5843 112.553L76.4653 116.677L75.7134 115.379L68.5944 119.503L69.3463 120.801L62.2272 124.925L61.4753 123.627L54.3563 127.751L55.1082 129.049L47.9891 133.173L47.2373 131.875L45.9258 132.635L45.9237 131.119L44.4237 131.121L44.4118 122.894L45.9118 122.892L45.8999 114.665L44.3999 114.667L44.388 106.44L45.888 106.437L45.8761 98.2101L44.3761 98.2123L44.3642 89.9851L45.8641 89.9829L45.8522 81.7557L44.3522 81.7578L44.3403 73.5306L45.8403 73.5284L45.8284 65.3012L44.3284 65.3034L44.3165 57.0761L45.8165 57.074L45.8046 48.8467L44.3046 48.8489L44.2927 40.6217L45.7927 40.6195L45.7808 32.3923L44.2808 32.3944L44.2689 24.1672L45.7689 24.165L45.7667 22.6495L47.0803 23.4054L47.8285 22.1053L54.9594 26.2086L54.2113 27.5087L61.3422 31.612L62.0903 30.3119L69.2213 34.4152L68.4732 35.7153L75.6041 39.8186L76.3522 38.5185L83.4832 42.6218L82.7351 43.9219L89.866 48.0252L90.6141 46.7251L97.7451 50.8284L96.9969 52.1285L104.128 56.2319L104.876 54.9317L112.007 59.035L111.259 60.3352L118.39 64.4385L119.138 63.1383L126.269 67.2417L125.521 68.5418L132.652 72.6451L133.4 71.345Z" stroke="#FDF5EB" stroke-width="3" stroke-dasharray="8 8" shape-rendering="crispEdges"/>
</g>
<g opacity="0.5" filter="url(#filter1_d_1582_491)">
<path d="M80.0538 72.2001L86.8215 76.0664L86.0775 77.3688L87.2054 78.0132L86.0834 78.6679L86.8393 79.9635L80.1072 83.8914L79.3513 82.5958L72.6191 86.5236L73.375 87.8192L66.6429 91.7471L65.887 90.4515L59.1548 94.3794L59.9108 95.675L53.1786 99.6029L52.4227 98.3073L45.6906 102.235L46.4465 103.531L39.7143 107.459L38.9584 106.163L32.2263 110.091L32.9822 111.387L26.2501 115.314L25.4941 114.019L24.3721 114.673L24.3662 113.374L22.8662 113.381L22.8306 105.587L24.3306 105.58L24.295 97.7862L22.795 97.793L22.7595 89.9989L24.2594 89.992L24.2239 82.1979L22.7239 82.2047L22.6883 74.4106L24.1883 74.4037L24.1527 66.6096L22.6527 66.6164L22.6172 58.8223L24.1171 58.8154L24.0816 51.0213L22.5816 51.0281L22.546 43.234L24.046 43.2271L24.0401 41.9281L25.168 42.5725L25.9121 41.27L32.6798 45.1363L31.9357 46.4387L38.7035 50.305L39.4475 49.0026L46.2152 52.8688L45.4712 54.1713L52.2389 58.0375L52.983 56.7351L59.7507 60.6013L59.0066 61.9038L65.7743 65.7701L66.5184 64.4676L73.2861 68.3339L72.542 69.6363L79.3098 73.5026L80.0538 72.2001Z" stroke="#FDF5EB" stroke-width="3" stroke-dasharray="8 8" shape-rendering="crispEdges"/>
</g>
<g filter="url(#filter2_d_1582_491)">
<path d="M190.031 71.6672L197.344 75.8891L196.594 77.1881L198 78L196.594 78.8119L197.344 80.1109L190.031 84.3328L189.281 83.0338L181.969 87.2556L182.719 88.5547L175.406 92.7766L174.656 91.4775L167.344 95.6994L168.094 96.9984L160.781 101.22L160.031 99.9213L152.719 104.143L153.469 105.442L146.156 109.664L145.406 108.365L138.094 112.587L138.844 113.886L131.531 118.108L130.781 116.809L123.469 121.031L124.219 122.33L116.906 126.552L116.156 125.253L108.844 129.474L109.594 130.773L102.281 134.995L101.531 133.696L94.2187 137.918L94.9687 139.217L87.6562 143.439L86.9062 142.14L85.5 142.952L85.5 141.328L84 141.328L84 132.884L85.5 132.884L85.5 124.441L84 124.441L84 115.997L85.5 115.997L85.5 107.553L84 107.553L84 99.1094L85.5 99.1094L85.5 90.6656L84 90.6656L84 82.2219L85.5 82.2219L85.5 73.7781L84 73.7781L84 65.3344L85.5 65.3344L85.5 56.8906L84 56.8906L84 48.4469L85.5 48.4469L85.5 40.0031L84 40.0031L84 31.5594L85.5 31.5594L85.5 23.1156L84 23.1156L84 14.6719L85.5 14.6719L85.5 13.0481L86.9062 13.86L87.6562 12.5609L94.9687 16.7828L94.2187 18.0819L101.531 22.3037L102.281 21.0047L109.594 25.2266L108.844 26.5256L116.156 30.7475L116.906 29.4484L124.219 33.6703L123.469 34.9694L130.781 39.1912L131.531 37.8922L138.844 42.1141L138.094 43.4131L145.406 47.635L146.156 46.3359L153.469 50.5578L152.719 51.8569L160.031 56.0787L160.781 54.7797L168.094 59.0016L167.344 60.3006L174.656 64.5225L175.406 63.2234L182.719 67.4453L181.969 68.7444L189.281 72.9662L190.031 71.6672Z" stroke="#618696" stroke-width="3" stroke-dasharray="8 8" shape-rendering="crispEdges"/>
</g>
<defs>
<filter id="filter0_d_1582_491" x="40.2637" y="20.0537" width="107.832" height="123.181" filterUnits="userSpaceOnUse" color-interpolation-filters="sRGB">
<feFlood flood-opacity="0" result="BackgroundImageFix"/>
<feColorMatrix in="SourceAlpha" type="matrix" values="0 0 0 0 0 0 0 0 0 0 0 0 0 0 0 0 0 0 127 0" result="hardAlpha"/>
<feOffset dy="4"/>
<feGaussianBlur stdDeviation="2"/>
<feComposite in2="hardAlpha" operator="out"/>
<feColorMatrix type="matrix" values="0 0 0 0 0 0 0 0 0 0 0 0 0 0 0 0 0 0 0.25 0"/>
<feBlend mode="normal" in2="BackgroundImageFix" result="effect1_dropShadow_1582_491"/>
<feBlend mode="normal" in="SourceGraphic" in2="effect1_dropShadow_1582_491" result="shape"/>
</filter>
<filter id="filter1_d_1582_491" x="18.5273" y="39.3369" width="75.6777" height="85.9414" filterUnits="userSpaceOnUse" color-interpolation-filters="sRGB">
<feFlood flood-opacity="0" result="BackgroundImageFix"/>
<feColorMatrix in="SourceAlpha" type="matrix" values="0 0 0 0 0 0 0 0 0 0 0 0 0 0 0 0 0 0 127 0" result="hardAlpha"/>
<feOffset dy="4"/>
<feGaussianBlur stdDeviation="2"/>
<feComposite in2="hardAlpha" operator="out"/>
<feColorMatrix type="matrix" values="0 0 0 0 0 0 0 0 0 0 0 0 0 0 0 0 0 0 0.25 0"/>
<feBlend mode="normal" in2="BackgroundImageFix" result="effect1_dropShadow_1582_491"/>
<feBlend mode="normal" in="SourceGraphic" in2="effect1_dropShadow_1582_491" result="shape"/>
</filter>
<filter id="filter2_d_1582_491" x="80" y="10.4502" width="125" height="143.1" filterUnits="userSpaceOnUse" color-interpolation-filters="sRGB">
<feFlood flood-opacity="0" result="BackgroundImageFix"/>
<feColorMatrix in="SourceAlpha" type="matrix" values="0 0 0 0 0 0 0 0 0 0 0 0 0 0 0 0 0 0 127 0" result="hardAlpha"/>
<feOffset dy="4"/>
<feGaussianBlur stdDeviation="2"/>
<feComposite in2="hardAlpha" operator="out"/>
<feColorMatrix type="matrix" values="0 0 0 0 0 0 0 0 0 0 0 0 0 0 0 0 0 0 0.25 0"/>
<feBlend mode="normal" in2="BackgroundImageFix" result="effect1_dropShadow_1582_491"/>
<feBlend mode="normal" in="SourceGraphic" in2="effect1_dropShadow_1582_491" result="shape"/>
</filter>
</defs>
</svg>
