<svg width="919" height="96" viewBox="0 0 919 96" fill="none" xmlns="http://www.w3.org/2000/svg">
<g opacity="0.4" filter="url(#filter0_d_1583_492)">
<mask id="path-1-outside-1_1583_492" maskUnits="userSpaceOnUse" x="3" y="-1" width="913" height="90" fill="black">
<rect fill="white" x="3" y="-1" width="913" height="90"/>
<path d="M26.0314 65.96C22.0634 65.96 18.3514 65.672 14.8954 65.096C11.5034 64.52 8.55938 63.688 6.06338 62.6V51.176C8.87938 52.328 11.9194 53.256 15.1834 53.96C18.4474 54.664 21.6474 55.016 24.7834 55.016C29.2634 55.016 32.5594 54.6 34.6714 53.768C36.7834 52.936 37.8394 51.048 37.8394 48.104C37.8394 46.248 37.3914 44.776 36.4954 43.688C35.5994 42.6 34.0314 41.64 31.7914 40.808C29.6154 39.912 26.5114 38.92 22.4794 37.832C16.0154 36.04 11.4714 33.8 8.84738 31.112C6.22338 28.424 4.91138 24.712 4.91138 19.976C4.91138 14.28 6.99138 9.896 11.1514 6.824C15.3114 3.752 21.3594 2.216 29.2954 2.216C33.0074 2.216 36.4634 2.472 39.6634 2.984C42.8634 3.496 45.4554 4.104 47.4394 4.808V16.232C42.1914 14.248 36.7194 13.256 31.0234 13.256C26.9914 13.256 23.8234 13.704 21.5194 14.6C19.2154 15.432 18.0634 17.224 18.0634 19.976C18.0634 21.576 18.4794 22.856 19.3114 23.816C20.1434 24.776 21.5514 25.64 23.5354 26.408C25.5834 27.176 28.4314 28.04 32.0794 29C37.1354 30.344 41.0394 31.944 43.7914 33.8C46.5434 35.656 48.4314 37.768 49.4554 40.136C50.5434 42.504 51.0874 45.16 51.0874 48.104C51.0874 53.48 49.0394 57.8 44.9434 61.064C40.8474 64.328 34.5434 65.96 26.0314 65.96ZM72.9791 65.96C70.0991 65.96 67.4111 65.448 64.9151 64.424C62.4831 63.336 60.4991 61.768 58.9631 59.72C57.4911 57.608 56.7551 54.984 56.7551 51.848C56.7551 47.368 58.3231 43.784 61.4591 41.096C64.6591 38.408 69.3631 37.064 75.5711 37.064H89.0111V35.816C89.0111 33 88.2111 31.016 86.6111 29.864C85.0751 28.712 81.9391 28.136 77.2031 28.136C72.0191 28.136 67.0271 28.936 62.2271 30.536V21.416C64.3391 20.584 66.8991 19.912 69.9071 19.4C72.9791 18.824 76.3071 18.536 79.8911 18.536C86.7391 18.536 92.0191 19.944 95.7311 22.76C99.5071 25.512 101.395 29.96 101.395 36.104V65H90.1631L89.4911 60.872C87.6991 62.472 85.4911 63.72 82.8671 64.616C80.2431 65.512 76.9471 65.96 72.9791 65.96ZM76.5311 57.416C79.4111 57.416 81.9071 56.936 84.0191 55.976C86.1311 55.016 87.7951 53.8 89.0111 52.328V45.128H75.8591C70.8031 45.128 68.2751 47.208 68.2751 51.368C68.2751 55.4 71.0271 57.416 76.5311 57.416ZM111.831 65V19.496H123.831L124.407 24.2C126.455 22.92 128.983 21.768 131.991 20.744C135.063 19.656 138.071 18.92 141.015 18.536V28.328C139.287 28.584 137.399 28.968 135.351 29.48C133.303 29.992 131.351 30.568 129.495 31.208C127.639 31.848 126.071 32.52 124.791 33.224V65H111.831ZM159.042 65.96C156.162 65.96 153.474 65.448 150.978 64.424C148.546 63.336 146.562 61.768 145.026 59.72C143.554 57.608 142.818 54.984 142.818 51.848C142.818 47.368 144.386 43.784 147.522 41.096C150.722 38.408 155.426 37.064 161.634 37.064H175.074V35.816C175.074 33 174.274 31.016 172.674 29.864C171.138 28.712 168.002 28.136 163.266 28.136C158.082 28.136 153.09 28.936 148.29 30.536V21.416C150.402 20.584 152.962 19.912 155.97 19.4C159.042 18.824 162.37 18.536 165.954 18.536C172.802 18.536 178.082 19.944 181.794 22.76C185.57 25.512 187.458 29.96 187.458 36.104V65H176.226L175.554 60.872C173.762 62.472 171.554 63.72 168.93 64.616C166.306 65.512 163.01 65.96 159.042 65.96ZM162.594 57.416C165.474 57.416 167.97 56.936 170.082 55.976C172.194 55.016 173.858 53.8 175.074 52.328V45.128H161.922C156.866 45.128 154.338 47.208 154.338 51.368C154.338 55.4 157.09 57.416 162.594 57.416ZM197.894 65V19.496H209.894L210.374 23.816C212.23 22.408 214.566 21.192 217.382 20.168C220.262 19.08 223.27 18.536 226.406 18.536C232.422 18.536 236.806 19.944 239.558 22.76C242.31 25.576 243.686 29.928 243.686 35.816V65H230.726V36.488C230.726 33.416 230.086 31.24 228.806 29.96C227.59 28.68 225.286 28.04 221.894 28.04C219.91 28.04 217.894 28.488 215.846 29.384C213.862 30.28 212.198 31.4 210.854 32.744V65H197.894ZM267.135 65.96C264.255 65.96 261.567 65.448 259.071 64.424C256.639 63.336 254.655 61.768 253.119 59.72C251.647 57.608 250.911 54.984 250.911 51.848C250.911 47.368 252.479 43.784 255.615 41.096C258.815 38.408 263.519 37.064 269.727 37.064H283.167V35.816C283.167 33 282.367 31.016 280.767 29.864C279.231 28.712 276.095 28.136 271.359 28.136C266.175 28.136 261.183 28.936 256.383 30.536V21.416C258.495 20.584 261.055 19.912 264.063 19.4C267.135 18.824 270.463 18.536 274.047 18.536C280.895 18.536 286.175 19.944 289.887 22.76C293.663 25.512 295.551 29.96 295.551 36.104V65H284.319L283.647 60.872C281.855 62.472 279.647 63.72 277.023 64.616C274.399 65.512 271.103 65.96 267.135 65.96ZM270.687 57.416C273.567 57.416 276.063 56.936 278.175 55.976C280.287 55.016 281.951 53.8 283.167 52.328V45.128H270.015C264.959 45.128 262.431 47.208 262.431 51.368C262.431 55.4 265.183 57.416 270.687 57.416ZM327.081 65V3.17599H353.001C362.281 3.17599 369.257 5.576 373.929 10.376C378.665 15.112 381.033 23.112 381.033 34.376C381.033 45 378.697 52.776 374.025 57.704C369.417 62.568 362.409 65 353.001 65H327.081ZM340.041 55.016H351.177C354.825 55.016 357.897 54.472 360.393 53.384C362.889 52.232 364.745 50.184 365.961 47.24C367.241 44.232 367.881 39.944 367.881 34.376C367.881 28.808 367.305 24.552 366.153 21.608C365.001 18.664 363.209 16.648 360.777 15.56C358.345 14.472 355.145 13.928 351.177 13.928H340.041V55.016ZM400.161 65L388.161 19.496H401.121L408.033 49.064L415.617 25.352V19.496H425.505L434.145 49.064L440.865 19.496H453.729L441.825 65H429.921L421.185 38.408L412.257 65H400.161ZM462.531 11.144V0.967995H476.643V11.144H462.531ZM463.587 65V29.096H456.771L457.923 19.496H476.547V65H463.587ZM527.875 65.96C523.907 65.96 520.195 65.672 516.739 65.096C513.347 64.52 510.403 63.688 507.907 62.6V51.176C510.723 52.328 513.763 53.256 517.027 53.96C520.291 54.664 523.491 55.016 526.627 55.016C531.107 55.016 534.403 54.6 536.515 53.768C538.627 52.936 539.683 51.048 539.683 48.104C539.683 46.248 539.235 44.776 538.339 43.688C537.443 42.6 535.875 41.64 533.635 40.808C531.459 39.912 528.355 38.92 524.323 37.832C517.859 36.04 513.315 33.8 510.691 31.112C508.067 28.424 506.755 24.712 506.755 19.976C506.755 14.28 508.835 9.896 512.995 6.824C517.155 3.752 523.203 2.216 531.139 2.216C534.851 2.216 538.307 2.472 541.507 2.984C544.707 3.496 547.299 4.104 549.283 4.808V16.232C544.035 14.248 538.563 13.256 532.867 13.256C528.835 13.256 525.667 13.704 523.363 14.6C521.059 15.432 519.907 17.224 519.907 19.976C519.907 21.576 520.323 22.856 521.155 23.816C521.987 24.776 523.395 25.64 525.379 26.408C527.427 27.176 530.275 28.04 533.923 29C538.979 30.344 542.883 31.944 545.635 33.8C548.387 35.656 550.275 37.768 551.299 40.136C552.387 42.504 552.931 45.16 552.931 48.104C552.931 53.48 550.883 57.8 546.787 61.064C542.691 64.328 536.387 65.96 527.875 65.96ZM585.637 65.96C577.765 65.96 571.525 64.008 566.917 60.104C562.309 56.136 560.005 50.152 560.005 42.152C560.005 34.92 561.925 29.192 565.765 24.968C569.669 20.68 575.461 18.536 583.141 18.536C590.181 18.536 595.557 20.392 599.269 24.104C603.045 27.752 604.933 32.552 604.933 38.504V46.76H572.005C572.709 50.408 574.373 52.904 576.997 54.248C579.685 55.592 583.461 56.264 588.325 56.264C590.757 56.264 593.221 56.04 595.717 55.592C598.277 55.144 600.453 54.568 602.245 53.864V63.08C600.133 64.04 597.669 64.744 594.853 65.192C592.037 65.704 588.965 65.96 585.637 65.96ZM572.005 38.792H593.605V36.296C593.605 33.672 592.837 31.624 591.301 30.152C589.765 28.616 587.173 27.848 583.525 27.848C579.237 27.848 576.229 28.712 574.501 30.44C572.837 32.168 572.005 34.952 572.005 38.792ZM617.471 11.144V0.967995H631.583V11.144H617.471ZM615.839 87.464C611.807 87.464 608.351 86.888 605.471 85.736V76.808C606.495 77.128 607.487 77.352 608.447 77.48C609.471 77.672 610.399 77.768 611.231 77.768C613.855 77.768 615.743 77.224 616.895 76.136C618.047 75.112 618.623 73.448 618.623 71.144V29.096H611.807L612.959 19.496H631.583V72.392C631.583 76.872 630.271 80.488 627.647 83.24C625.087 86.056 621.151 87.464 615.839 87.464ZM656.948 65.96C654.068 65.96 651.38 65.448 648.884 64.424C646.452 63.336 644.468 61.768 642.932 59.72C641.46 57.608 640.724 54.984 640.724 51.848C640.724 47.368 642.292 43.784 645.428 41.096C648.628 38.408 653.332 37.064 659.54 37.064H672.98V35.816C672.98 33 672.18 31.016 670.58 29.864C669.044 28.712 665.908 28.136 661.172 28.136C655.988 28.136 650.996 28.936 646.196 30.536V21.416C648.308 20.584 650.868 19.912 653.876 19.4C656.948 18.824 660.276 18.536 663.86 18.536C670.708 18.536 675.988 19.944 679.7 22.76C683.476 25.512 685.364 29.96 685.364 36.104V65H674.132L673.46 60.872C671.668 62.472 669.46 63.72 666.836 64.616C664.212 65.512 660.916 65.96 656.948 65.96ZM660.5 57.416C663.38 57.416 665.876 56.936 667.988 55.976C670.1 55.016 671.764 53.8 672.98 52.328V45.128H659.828C654.772 45.128 652.244 47.208 652.244 51.368C652.244 55.4 654.996 57.416 660.5 57.416ZM695.8 65V0.295998H708.76V23.336C710.616 21.928 712.888 20.776 715.576 19.88C718.264 18.984 721.176 18.536 724.312 18.536C730.328 18.536 734.712 19.944 737.464 22.76C740.216 25.576 741.592 29.928 741.592 35.816V65H728.632V36.488C728.632 33.416 727.992 31.24 726.712 29.96C725.496 28.68 723.192 28.04 719.8 28.04C717.816 28.04 715.8 28.488 713.752 29.384C711.768 30.28 710.104 31.4 708.76 32.744V65H695.8ZM770.192 65.96C764.944 65.96 761.04 64.584 758.48 61.832C755.984 59.08 754.736 55.336 754.736 50.6V29.48H748.304V19.496H754.736V9.704L767.696 5.86399V19.496H779.216L778.448 29.48H767.696V49.736C767.696 52.232 768.272 53.96 769.424 54.92C770.576 55.816 772.368 56.264 774.8 56.264C776.592 56.264 778.448 55.944 780.368 55.304V64.232C778.96 64.808 777.424 65.224 775.76 65.48C774.096 65.8 772.24 65.96 770.192 65.96ZM810.731 65.96C802.859 65.96 796.619 64.008 792.011 60.104C787.403 56.136 785.099 50.152 785.099 42.152C785.099 34.92 787.019 29.192 790.859 24.968C794.763 20.68 800.555 18.536 808.235 18.536C815.275 18.536 820.651 20.392 824.363 24.104C828.139 27.752 830.027 32.552 830.027 38.504V46.76H797.099C797.803 50.408 799.467 52.904 802.091 54.248C804.779 55.592 808.555 56.264 813.419 56.264C815.851 56.264 818.315 56.04 820.811 55.592C823.371 55.144 825.547 54.568 827.339 53.864V63.08C825.227 64.04 822.763 64.744 819.947 65.192C817.131 65.704 814.059 65.96 810.731 65.96ZM797.099 38.792H818.699V36.296C818.699 33.672 817.931 31.624 816.395 30.152C814.859 28.616 812.267 27.848 808.619 27.848C804.331 27.848 801.323 28.712 799.595 30.44C797.931 32.168 797.099 34.952 797.099 38.792ZM839.05 65V19.496H851.05L851.626 24.2C853.674 22.92 856.202 21.768 859.21 20.744C862.282 19.656 865.29 18.92 868.234 18.536V28.328C866.506 28.584 864.618 28.968 862.57 29.48C860.522 29.992 858.57 30.568 856.714 31.208C854.858 31.848 853.29 32.52 852.01 33.224V65H839.05ZM886.26 65.96C883.38 65.96 880.692 65.448 878.196 64.424C875.764 63.336 873.78 61.768 872.244 59.72C870.772 57.608 870.036 54.984 870.036 51.848C870.036 47.368 871.604 43.784 874.74 41.096C877.94 38.408 882.644 37.064 888.852 37.064H902.292V35.816C902.292 33 901.492 31.016 899.892 29.864C898.356 28.712 895.22 28.136 890.484 28.136C885.3 28.136 880.308 28.936 875.508 30.536V21.416C877.62 20.584 880.18 19.912 883.188 19.4C886.26 18.824 889.588 18.536 893.172 18.536C900.02 18.536 905.3 19.944 909.012 22.76C912.788 25.512 914.676 29.96 914.676 36.104V65H903.444L902.772 60.872C900.98 62.472 898.772 63.72 896.148 64.616C893.524 65.512 890.228 65.96 886.26 65.96ZM889.812 57.416C892.692 57.416 895.188 56.936 897.3 55.976C899.412 55.016 901.076 53.8 902.292 52.328V45.128H889.14C884.084 45.128 881.556 47.208 881.556 51.368C881.556 55.4 884.308 57.416 889.812 57.416Z"/>
</mask>
<path d="M14.8954 65.096L14.728 66.0819L14.731 66.0824L14.8954 65.096ZM6.06338 62.6H5.06338V63.255L5.66379 63.5167L6.06338 62.6ZM6.06338 51.176L6.44201 50.2505L5.06338 49.6865V51.176H6.06338ZM15.1834 53.96L15.3942 52.9825L15.3942 52.9825L15.1834 53.96ZM34.6714 53.768L34.3049 52.8376L34.3049 52.8376L34.6714 53.768ZM36.4954 43.688L37.2673 43.0523L37.2673 43.0523L36.4954 43.688ZM31.7914 40.808L31.4106 41.7327L31.4268 41.7393L31.4432 41.7454L31.7914 40.808ZM22.4794 37.832L22.2122 38.7957L22.2189 38.7975L22.4794 37.832ZM11.1514 6.824L11.7454 7.62843L11.7454 7.62843L11.1514 6.824ZM47.4394 4.808H48.4394V4.10175L47.7738 3.86557L47.4394 4.808ZM47.4394 16.232L47.0858 17.1674L48.4394 17.6791V16.232H47.4394ZM21.5194 14.6L21.859 15.5406L21.8705 15.5364L21.8818 15.532L21.5194 14.6ZM19.3114 23.816L18.5557 24.4709L18.5557 24.4709L19.3114 23.816ZM23.5354 26.408L23.1744 27.3406L23.1843 27.3443L23.5354 26.408ZM32.0794 29L32.3363 28.0336L32.3339 28.0329L32.0794 29ZM43.7914 33.8L44.3505 32.9709L44.3505 32.9709L43.7914 33.8ZM49.4554 40.136L48.5375 40.5329L48.542 40.5433L48.5467 40.5535L49.4554 40.136ZM44.9434 61.064L45.5666 61.8461L45.5666 61.8461L44.9434 61.064ZM26.0314 64.96C22.1114 64.96 18.4549 64.6755 15.0598 64.1096L14.731 66.0824C18.2479 66.6685 22.0154 66.96 26.0314 66.96V64.96ZM15.0628 64.1101C11.7308 63.5443 8.86818 62.7317 6.46296 61.6833L5.66379 63.5167C8.25057 64.6443 11.276 65.4957 14.728 66.0819L15.0628 64.1101ZM7.06338 62.6V51.176H5.06338V62.6H7.06338ZM5.68474 52.1015C8.56 53.2778 11.6567 54.2223 14.9725 54.9375L15.3942 52.9825C12.1821 52.2897 9.19875 51.3782 6.44201 50.2505L5.68474 52.1015ZM14.9725 54.9375C18.3014 55.6555 21.5721 56.016 24.7834 56.016V54.016C21.7227 54.016 18.5934 53.6725 15.3942 52.9825L14.9725 54.9375ZM24.7834 56.016C29.2909 56.016 32.7436 55.6022 35.0379 54.6984L34.3049 52.8376C32.3751 53.5978 29.2359 54.016 24.7834 54.016V56.016ZM35.0379 54.6984C36.2972 54.2023 37.2736 53.3721 37.9201 52.2162C38.5563 51.0788 38.8394 49.6879 38.8394 48.104H36.8394C36.8394 49.4641 36.5945 50.4892 36.1746 51.2398C35.7651 51.9719 35.1576 52.5017 34.3049 52.8376L35.0379 54.6984ZM38.8394 48.104C38.8394 46.0902 38.3519 44.3693 37.2673 43.0523L35.7234 44.3237C36.4309 45.1827 36.8394 46.4058 36.8394 48.104H38.8394ZM37.2673 43.0523C36.2061 41.7637 34.4437 40.7264 32.1396 39.8706L31.4432 41.7454C33.6191 42.5536 34.9926 43.4363 35.7234 44.3237L37.2673 43.0523ZM32.1721 39.8833C29.9381 38.9634 26.7867 37.9585 22.7399 36.8665L22.2189 38.7975C26.2361 39.8815 29.2927 40.8606 31.4106 41.7327L32.1721 39.8833ZM22.7465 36.8683C16.3376 35.0916 12.0006 32.9106 9.56295 30.4135L8.1318 31.8105C10.9421 34.6894 15.6931 36.9884 22.2122 38.7957L22.7465 36.8683ZM9.56295 30.4135C7.16576 27.9578 5.91138 24.5224 5.91138 19.976H3.91138C3.91138 24.9016 5.28099 28.8902 8.1318 31.8105L9.56295 30.4135ZM5.91138 19.976C5.91138 14.5601 7.86928 10.4908 11.7454 7.62843L10.5573 6.01957C6.11347 9.30118 3.91138 13.9999 3.91138 19.976H5.91138ZM11.7454 7.62843C15.6634 4.73513 21.4657 3.216 29.2954 3.216V1.216C21.253 1.216 14.9593 2.76886 10.5573 6.01957L11.7454 7.62843ZM29.2954 3.216C32.9619 3.216 36.3645 3.4689 39.5054 3.97144L39.8214 1.99656C36.5622 1.4751 33.0528 1.216 29.2954 1.216V3.216ZM39.5054 3.97144C42.6737 4.47837 45.2002 5.07453 47.105 5.75042L47.7738 3.86557C45.7106 3.13346 43.053 2.51362 39.8214 1.99656L39.5054 3.97144ZM46.4394 4.808V16.232H48.4394V4.808H46.4394ZM47.793 15.2966C42.4303 13.2692 36.8383 12.256 31.0234 12.256V14.256C36.6004 14.256 41.9525 15.2268 47.0858 17.1674L47.793 15.2966ZM31.0234 12.256C26.9357 12.256 23.6265 12.7076 21.1569 13.668L21.8818 15.532C24.0202 14.7004 27.0471 14.256 31.0234 14.256V12.256ZM21.1797 13.6594C19.8535 14.1384 18.7983 14.9196 18.0862 16.0272C17.3802 17.1254 17.0634 18.4635 17.0634 19.976H19.0634C19.0634 18.7365 19.3225 17.8026 19.7686 17.1088C20.2085 16.4244 20.8812 15.8936 21.859 15.5406L21.1797 13.6594ZM17.0634 19.976C17.0634 21.7522 17.5285 23.2857 18.5557 24.4709L20.0671 23.1611C19.4302 22.4263 19.0634 21.3998 19.0634 19.976H17.0634ZM18.5557 24.4709C19.5438 25.6111 21.1284 26.5486 23.1744 27.3406L23.8964 25.4754C21.9743 24.7314 20.7429 23.9409 20.0671 23.1611L18.5557 24.4709ZM23.1843 27.3443C25.2786 28.1297 28.1639 29.0037 31.8249 29.9671L32.3339 28.0329C28.6988 27.0763 25.8882 26.2223 23.8865 25.4717L23.1843 27.3443ZM31.8225 29.9664C36.8254 31.2963 40.6101 32.8606 43.2322 34.6291L44.3505 32.9709C41.4687 31.0274 37.4453 29.3917 32.3363 28.0336L31.8225 29.9664ZM43.2322 34.6291C45.8707 36.4085 47.6083 38.3841 48.5375 40.5329L50.3732 39.7391C49.2545 37.1519 47.2161 34.9035 44.3505 32.9709L43.2322 34.6291ZM48.5467 40.5535C49.5672 42.7745 50.0874 45.2854 50.0874 48.104H52.0874C52.0874 45.0346 51.5196 42.2335 50.3641 39.7185L48.5467 40.5535ZM50.0874 48.104C50.0874 53.1849 48.1708 57.2134 44.3202 60.2819L45.5666 61.8461C49.9079 58.3866 52.0874 53.7751 52.0874 48.104H50.0874ZM44.3202 60.2819C40.482 63.3405 34.4481 64.96 26.0314 64.96V66.96C34.6386 66.96 41.2127 65.3155 45.5666 61.8461L44.3202 60.2819ZM64.9151 64.424L64.5068 65.3368L64.5211 65.3432L64.5356 65.3492L64.9151 64.424ZM58.9631 59.72L58.1427 60.2918L58.1527 60.3061L58.1631 60.32L58.9631 59.72ZM61.4591 41.096L60.8159 40.3303L60.8083 40.3367L61.4591 41.096ZM89.0111 37.064V38.064H90.0111V37.064H89.0111ZM86.6111 29.864L86.0111 30.664L86.0189 30.6698L86.0268 30.6755L86.6111 29.864ZM62.2271 30.536H61.2271V31.9234L62.5434 31.4847L62.2271 30.536ZM62.2271 21.416L61.8606 20.4856L61.2271 20.7351V21.416H62.2271ZM69.9071 19.4L70.0749 20.3858L70.0832 20.3844L70.0914 20.3829L69.9071 19.4ZM95.7311 22.76L95.1267 23.5567L95.1344 23.5625L95.1421 23.5681L95.7311 22.76ZM101.395 65V66H102.395V65H101.395ZM90.1631 65L89.1761 65.1607L89.3128 66H90.1631V65ZM89.4911 60.872L90.4781 60.7113L90.1852 58.9117L88.8251 60.1261L89.4911 60.872ZM89.0111 52.328L89.7821 52.9649L90.0111 52.6876V52.328H89.0111ZM89.0111 45.128H90.0111V44.128H89.0111V45.128ZM72.9791 64.96C70.2204 64.96 67.6623 64.4702 65.2947 63.4988L64.5356 65.3492C67.16 66.4258 69.9778 66.96 72.9791 66.96V64.96ZM65.3235 63.5112C63.0399 62.4896 61.193 61.0265 59.7631 59.12L58.1631 60.32C59.8052 62.5095 61.9263 64.1824 64.5068 65.3368L65.3235 63.5112ZM59.7835 59.1482C58.4519 57.2376 57.7551 54.8248 57.7551 51.848H55.7551C55.7551 55.1432 56.5303 57.9784 58.1427 60.2918L59.7835 59.1482ZM57.7551 51.848C57.7551 47.632 59.2159 44.3358 62.1099 41.8553L60.8083 40.3367C57.4303 43.2322 55.7551 47.104 55.7551 51.848H57.7551ZM62.1023 41.8617C65.0526 39.3835 69.4879 38.064 75.5711 38.064V36.064C69.2384 36.064 64.2657 37.4325 60.8159 40.3303L62.1023 41.8617ZM75.5711 38.064H89.0111V36.064H75.5711V38.064ZM90.0111 37.064V35.816H88.0111V37.064H90.0111ZM90.0111 35.816C90.0111 32.825 89.1562 30.4642 87.1954 29.0525L86.0268 30.6755C87.2661 31.5678 88.0111 33.175 88.0111 35.816H90.0111ZM87.2111 29.064C86.2635 28.3533 84.9196 27.8842 83.2878 27.5845C81.6391 27.2816 79.6056 27.136 77.2031 27.136V29.136C79.5367 29.136 81.4392 29.2784 82.9265 29.5515C84.4306 29.8278 85.4228 30.2227 86.0111 30.664L87.2111 29.064ZM77.2031 27.136C71.9143 27.136 66.8154 27.9525 61.9109 29.5873L62.5434 31.4847C67.2389 29.9195 72.1239 29.136 77.2031 29.136V27.136ZM63.2271 30.536V21.416H61.2271V30.536H63.2271ZM62.5936 22.3464C64.6239 21.5466 67.1133 20.8899 70.0749 20.3858L69.7393 18.4142C66.6849 18.9341 64.0543 19.6214 61.8606 20.4856L62.5936 22.3464ZM70.0914 20.3829C73.0946 19.8198 76.3602 19.536 79.8911 19.536V17.536C76.2541 17.536 72.8637 17.8282 69.7228 18.4171L70.0914 20.3829ZM79.8911 19.536C86.6192 19.536 91.6534 20.9217 95.1267 23.5567L96.3355 21.9633C92.3849 18.9663 86.859 17.536 79.8911 17.536V19.536ZM95.1421 23.5681C98.5821 26.0752 100.395 30.1693 100.395 36.104H102.395C102.395 29.7507 100.432 24.9488 96.3201 21.9519L95.1421 23.5681ZM100.395 36.104V65H102.395V36.104H100.395ZM101.395 64H90.1631V66H101.395V64ZM91.1501 64.8393L90.4781 60.7113L88.5041 61.0327L89.1761 65.1607L91.1501 64.8393ZM88.8251 60.1261C87.147 61.6243 85.0608 62.8103 82.544 63.6697L83.1903 65.5623C85.9215 64.6297 88.2512 63.3197 90.1571 61.6179L88.8251 60.1261ZM82.544 63.6697C80.0583 64.5184 76.8805 64.96 72.9791 64.96V66.96C77.0138 66.96 80.4279 66.5056 83.1903 65.5623L82.544 63.6697ZM76.5311 58.416C79.5203 58.416 82.1636 57.9179 84.4329 56.8864L83.6053 55.0656C81.6507 55.9541 79.3019 56.416 76.5311 56.416V58.416ZM84.4329 56.8864C86.6539 55.8768 88.4508 54.5765 89.7821 52.9649L88.2402 51.6911C87.1395 53.0235 85.6083 54.1552 83.6053 55.0656L84.4329 56.8864ZM90.0111 52.328V45.128H88.0111V52.328H90.0111ZM89.0111 44.128H75.8591V46.128H89.0111V44.128ZM75.8591 44.128C73.2192 44.128 71.0535 44.667 69.5358 45.9158C67.9807 47.1953 67.2751 49.0768 67.2751 51.368H69.2751C69.2751 49.4992 69.8335 48.2607 70.8065 47.4602C71.8168 46.629 73.443 46.128 75.8591 46.128V44.128ZM67.2751 51.368C67.2751 53.6369 68.0662 55.4786 69.7482 56.7107C71.3721 57.9003 73.6866 58.416 76.5311 58.416V56.416C73.8717 56.416 72.0582 55.9237 70.9301 55.0973C69.86 54.3134 69.2751 53.1311 69.2751 51.368H67.2751ZM111.831 65H110.831V66H111.831V65ZM111.831 19.496V18.496H110.831V19.496H111.831ZM123.831 19.496L124.824 19.3745L124.716 18.496H123.831V19.496ZM124.407 24.2L123.415 24.3215L123.606 25.8803L124.937 25.048L124.407 24.2ZM131.991 20.744L132.314 21.6907L132.325 21.6866L131.991 20.744ZM141.015 18.536H142.015V17.3971L140.886 17.5444L141.015 18.536ZM141.015 28.328L141.162 29.3172L142.015 29.1908V28.328H141.015ZM135.351 29.48L135.594 30.4501L135.594 30.4501L135.351 29.48ZM129.495 31.208L129.169 30.2626L129.169 30.2626L129.495 31.208ZM124.791 33.224L124.309 32.3478L123.791 32.6327V33.224H124.791ZM124.791 65V66H125.791V65H124.791ZM112.831 65V19.496H110.831V65H112.831ZM111.831 20.496H123.831V18.496H111.831V20.496ZM122.839 19.6175L123.415 24.3215L125.4 24.0785L124.824 19.3745L122.839 19.6175ZM124.937 25.048C126.903 23.8192 129.357 22.6972 132.314 21.6906L131.669 19.7973C128.61 20.8388 126.007 22.0208 123.877 23.352L124.937 25.048ZM132.325 21.6866C135.337 20.6198 138.277 19.9017 141.145 19.5276L140.886 17.5444C137.866 17.9383 134.789 18.6922 131.658 19.8014L132.325 21.6866ZM140.015 18.536V28.328H142.015V18.536H140.015ZM140.869 27.3388C139.103 27.6004 137.182 27.9915 135.109 28.5099L135.594 30.4501C137.617 29.9445 139.472 29.5676 141.162 29.3172L140.869 27.3388ZM135.109 28.5099C133.035 29.0284 131.055 29.6125 129.169 30.2626L129.821 32.1534C131.648 31.5235 133.572 30.9556 135.594 30.4501L135.109 28.5099ZM129.169 30.2626C127.277 30.9153 125.653 31.6088 124.309 32.3478L125.273 34.1002C126.49 33.4312 128.002 32.7807 129.821 32.1534L129.169 30.2626ZM123.791 33.224V65H125.791V33.224H123.791ZM124.791 64H111.831V66H124.791V64ZM150.978 64.424L150.569 65.3368L150.584 65.3432L150.598 65.3492L150.978 64.424ZM145.026 59.72L144.205 60.2918L144.215 60.3061L144.226 60.32L145.026 59.72ZM147.522 41.096L146.878 40.3303L146.871 40.3367L147.522 41.096ZM175.074 37.064V38.064H176.074V37.064H175.074ZM172.674 29.864L172.074 30.664L172.081 30.6698L172.089 30.6755L172.674 29.864ZM148.29 30.536H147.29V31.9234L148.606 31.4847L148.29 30.536ZM148.29 21.416L147.923 20.4856L147.29 20.7351V21.416H148.29ZM155.97 19.4L156.137 20.3858L156.146 20.3844L156.154 20.3829L155.97 19.4ZM181.794 22.76L181.189 23.5567L181.197 23.5625L181.205 23.5681L181.794 22.76ZM187.458 65V66H188.458V65H187.458ZM176.226 65L175.239 65.1607L175.375 66H176.226V65ZM175.554 60.872L176.541 60.7113L176.248 58.9117L174.888 60.1261L175.554 60.872ZM175.074 52.328L175.845 52.9649L176.074 52.6876V52.328H175.074ZM175.074 45.128H176.074V44.128H175.074V45.128ZM159.042 64.96C156.283 64.96 153.725 64.4702 151.357 63.4988L150.598 65.3492C153.222 66.4258 156.04 66.96 159.042 66.96V64.96ZM151.386 63.5112C149.102 62.4896 147.256 61.0265 145.826 59.12L144.226 60.32C145.868 62.5095 147.989 64.1824 150.569 65.3368L151.386 63.5112ZM145.846 59.1482C144.514 57.2376 143.818 54.8248 143.818 51.848H141.818C141.818 55.1432 142.593 57.9784 144.205 60.2918L145.846 59.1482ZM143.818 51.848C143.818 47.632 145.278 44.3358 148.172 41.8553L146.871 40.3367C143.493 43.2322 141.818 47.104 141.818 51.848H143.818ZM148.165 41.8617C151.115 39.3835 155.55 38.064 161.634 38.064V36.064C155.301 36.064 150.328 37.4325 146.878 40.3303L148.165 41.8617ZM161.634 38.064H175.074V36.064H161.634V38.064ZM176.074 37.064V35.816H174.074V37.064H176.074ZM176.074 35.816C176.074 32.825 175.219 30.4642 173.258 29.0525L172.089 30.6755C173.329 31.5678 174.074 33.175 174.074 35.816H176.074ZM173.274 29.064C172.326 28.3533 170.982 27.8842 169.35 27.5845C167.702 27.2816 165.668 27.136 163.266 27.136V29.136C165.599 29.136 167.502 29.2784 168.989 29.5515C170.493 29.8278 171.485 30.2227 172.074 30.664L173.274 29.064ZM163.266 27.136C157.977 27.136 152.878 27.9525 147.973 29.5873L148.606 31.4847C153.301 29.9195 158.186 29.136 163.266 29.136V27.136ZM149.29 30.536V21.416H147.29V30.536H149.29ZM148.656 22.3464C150.686 21.5466 153.176 20.8899 156.137 20.3858L155.802 18.4142C152.747 18.9341 150.117 19.6214 147.923 20.4856L148.656 22.3464ZM156.154 20.3829C159.157 19.8198 162.423 19.536 165.954 19.536V17.536C162.317 17.536 158.926 17.8282 155.785 18.4171L156.154 20.3829ZM165.954 19.536C172.682 19.536 177.716 20.9217 181.189 23.5567L182.398 21.9633C178.447 18.9663 172.922 17.536 165.954 17.536V19.536ZM181.205 23.5681C184.645 26.0752 186.458 30.1693 186.458 36.104H188.458C188.458 29.7507 186.495 24.9488 182.383 21.9519L181.205 23.5681ZM186.458 36.104V65H188.458V36.104H186.458ZM187.458 64H176.226V66H187.458V64ZM177.213 64.8393L176.541 60.7113L174.567 61.0327L175.239 65.1607L177.213 64.8393ZM174.888 60.1261C173.21 61.6243 171.123 62.8103 168.606 63.6697L169.253 65.5623C171.984 64.6297 174.314 63.3197 176.22 61.6179L174.888 60.1261ZM168.606 63.6697C166.121 64.5184 162.943 64.96 159.042 64.96V66.96C163.076 66.96 166.49 66.5056 169.253 65.5623L168.606 63.6697ZM162.594 58.416C165.583 58.416 168.226 57.9179 170.495 56.8864L169.668 55.0656C167.713 55.9541 165.364 56.416 162.594 56.416V58.416ZM170.495 56.8864C172.716 55.8768 174.513 54.5765 175.845 52.9649L174.303 51.6911C173.202 53.0235 171.671 54.1552 169.668 55.0656L170.495 56.8864ZM176.074 52.328V45.128H174.074V52.328H176.074ZM175.074 44.128H161.922V46.128H175.074V44.128ZM161.922 44.128C159.282 44.128 157.116 44.667 155.598 45.9158C154.043 47.1953 153.338 49.0768 153.338 51.368H155.338C155.338 49.4992 155.896 48.2607 156.869 47.4602C157.879 46.629 159.506 46.128 161.922 46.128V44.128ZM153.338 51.368C153.338 53.6369 154.129 55.4786 155.811 56.7107C157.435 57.9003 159.749 58.416 162.594 58.416V56.416C159.934 56.416 158.121 55.9237 156.993 55.0973C155.923 54.3134 155.338 53.1311 155.338 51.368H153.338ZM197.894 65H196.894V66H197.894V65ZM197.894 19.496V18.496H196.894V19.496H197.894ZM209.894 19.496L210.888 19.3856L210.789 18.496H209.894V19.496ZM210.374 23.816L209.38 23.9264L209.575 25.6776L210.978 24.6127L210.374 23.816ZM217.382 20.168L217.724 21.1079L217.735 21.1035L217.382 20.168ZM243.686 65V66H244.686V65H243.686ZM230.726 65H229.726V66H230.726V65ZM228.806 29.96L228.081 30.6487L228.09 30.658L228.099 30.6671L228.806 29.96ZM215.846 29.384L215.445 28.4678L215.434 28.4726L215.846 29.384ZM210.854 32.744L210.147 32.0369L209.854 32.3298V32.744H210.854ZM210.854 65V66H211.854V65H210.854ZM198.894 65V19.496H196.894V65H198.894ZM197.894 20.496H209.894V18.496H197.894V20.496ZM208.9 19.6064L209.38 23.9264L211.368 23.7056L210.888 19.3856L208.9 19.6064ZM210.978 24.6127C212.735 23.2798 214.976 22.1068 217.724 21.1078L217.04 19.2282C214.155 20.2772 211.724 21.5362 209.769 23.0193L210.978 24.6127ZM217.735 21.1035C220.5 20.0589 223.388 19.536 226.406 19.536V17.536C223.151 17.536 220.024 18.1011 217.028 19.2325L217.735 21.1035ZM226.406 19.536C232.293 19.536 236.358 20.9166 238.843 23.4589L240.273 22.0611C237.254 18.9714 232.551 17.536 226.406 17.536V19.536ZM238.843 23.4589C241.339 26.0133 242.686 30.0616 242.686 35.816H244.686C244.686 29.7944 243.281 25.1387 240.273 22.0611L238.843 23.4589ZM242.686 35.816V65H244.686V35.816H242.686ZM243.686 64H230.726V66H243.686V64ZM231.726 65V36.488H229.726V65H231.726ZM231.726 36.488C231.726 33.3242 231.075 30.8151 229.513 29.2529L228.099 30.6671C229.097 31.6649 229.726 33.5078 229.726 36.488H231.726ZM229.531 29.2712C228.013 27.6735 225.335 27.04 221.894 27.04V29.04C225.237 29.04 227.167 29.6865 228.081 30.6487L229.531 29.2712ZM221.894 27.04C219.755 27.04 217.603 27.5236 215.445 28.4678L216.247 30.3002C218.184 29.4524 220.064 29.04 221.894 29.04V27.04ZM215.434 28.4726C213.356 29.4112 211.588 30.5961 210.147 32.0369L211.561 33.4511C212.808 32.2039 214.368 31.1488 216.257 30.2954L215.434 28.4726ZM209.854 32.744V65H211.854V32.744H209.854ZM210.854 64H197.894V66H210.854V64ZM259.071 64.424L258.663 65.3368L258.677 65.3432L258.692 65.3492L259.071 64.424ZM253.119 59.72L252.299 60.2918L252.309 60.3061L252.319 60.32L253.119 59.72ZM255.615 41.096L254.972 40.3303L254.965 40.3367L255.615 41.096ZM283.167 37.064V38.064H284.167V37.064H283.167ZM280.767 29.864L280.167 30.664L280.175 30.6698L280.183 30.6755L280.767 29.864ZM256.383 30.536H255.383V31.9234L256.7 31.4847L256.383 30.536ZM256.383 21.416L256.017 20.4856L255.383 20.7351V21.416H256.383ZM264.063 19.4L264.231 20.3858L264.239 20.3844L264.248 20.3829L264.063 19.4ZM289.887 22.76L289.283 23.5567L289.291 23.5625L289.298 23.5681L289.887 22.76ZM295.551 65V66H296.551V65H295.551ZM284.319 65L283.332 65.1607L283.469 66H284.319V65ZM283.647 60.872L284.634 60.7113L284.341 58.9117L282.981 60.1261L283.647 60.872ZM283.167 52.328L283.938 52.9649L284.167 52.6876V52.328H283.167ZM283.167 45.128H284.167V44.128H283.167V45.128ZM267.135 64.96C264.377 64.96 261.819 64.4702 259.451 63.4988L258.692 65.3492C261.316 66.4258 264.134 66.96 267.135 66.96V64.96ZM259.48 63.5112C257.196 62.4896 255.349 61.0265 253.919 59.12L252.319 60.32C253.961 62.5095 256.083 64.1824 258.663 65.3368L259.48 63.5112ZM253.94 59.1482C252.608 57.2376 251.911 54.8248 251.911 51.848H249.911C249.911 55.1432 250.687 57.9784 252.299 60.2918L253.94 59.1482ZM251.911 51.848C251.911 47.632 253.372 44.3358 256.266 41.8553L254.965 40.3367C251.587 43.2322 249.911 47.104 249.911 51.848H251.911ZM256.259 41.8617C259.209 39.3835 263.644 38.064 269.727 38.064V36.064C263.395 36.064 258.422 37.4325 254.972 40.3303L256.259 41.8617ZM269.727 38.064H283.167V36.064H269.727V38.064ZM284.167 37.064V35.816H282.167V37.064H284.167ZM284.167 35.816C284.167 32.825 283.312 30.4642 281.352 29.0525L280.183 30.6755C281.422 31.5678 282.167 33.175 282.167 35.816H284.167ZM281.367 29.064C280.42 28.3533 279.076 27.8842 277.444 27.5845C275.795 27.2816 273.762 27.136 271.359 27.136V29.136C273.693 29.136 275.595 29.2784 277.083 29.5515C278.587 29.8278 279.579 30.2227 280.167 30.664L281.367 29.064ZM271.359 27.136C266.071 27.136 260.972 27.9525 256.067 29.5873L256.7 31.4847C261.395 29.9195 266.28 29.136 271.359 29.136V27.136ZM257.383 30.536V21.416H255.383V30.536H257.383ZM256.75 22.3464C258.78 21.5466 261.27 20.8899 264.231 20.3858L263.896 18.4142C260.841 18.9341 258.211 19.6214 256.017 20.4856L256.75 22.3464ZM264.248 20.3829C267.251 19.8198 270.516 19.536 274.047 19.536V17.536C270.41 17.536 267.02 17.8282 263.879 18.4171L264.248 20.3829ZM274.047 19.536C280.775 19.536 285.81 20.9217 289.283 23.5567L290.492 21.9633C286.541 18.9663 281.015 17.536 274.047 17.536V19.536ZM289.298 23.5681C292.738 26.0752 294.551 30.1693 294.551 36.104H296.551C296.551 29.7507 294.588 24.9488 290.476 21.9519L289.298 23.5681ZM294.551 36.104V65H296.551V36.104H294.551ZM295.551 64H284.319V66H295.551V64ZM285.306 64.8393L284.634 60.7113L282.66 61.0327L283.332 65.1607L285.306 64.8393ZM282.981 60.1261C281.303 61.6243 279.217 62.8103 276.7 63.6697L277.347 65.5623C280.078 64.6297 282.407 63.3197 284.313 61.6179L282.981 60.1261ZM276.7 63.6697C274.215 64.5184 271.037 64.96 267.135 64.96V66.96C271.17 66.96 274.584 66.5056 277.347 65.5623L276.7 63.6697ZM270.687 58.416C273.677 58.416 276.32 57.9179 278.589 56.8864L277.762 55.0656C275.807 55.9541 273.458 56.416 270.687 56.416V58.416ZM278.589 56.8864C280.81 55.8768 282.607 54.5765 283.938 52.9649L282.396 51.6911C281.296 53.0235 279.765 54.1552 277.762 55.0656L278.589 56.8864ZM284.167 52.328V45.128H282.167V52.328H284.167ZM283.167 44.128H270.015V46.128H283.167V44.128ZM270.015 44.128C267.375 44.128 265.21 44.667 263.692 45.9158C262.137 47.1953 261.431 49.0768 261.431 51.368H263.431C263.431 49.4992 263.99 48.2607 264.963 47.4602C265.973 46.629 267.599 46.128 270.015 46.128V44.128ZM261.431 51.368C261.431 53.6369 262.222 55.4786 263.904 56.7107C265.528 57.9003 267.843 58.416 270.687 58.416V56.416C268.028 56.416 266.214 55.9237 265.086 55.0973C264.016 54.3134 263.431 53.1311 263.431 51.368H261.431ZM327.081 65H326.081V66H327.081V65ZM327.081 3.17599V2.17599H326.081V3.17599H327.081ZM373.929 10.376L373.213 11.0736L373.222 11.0831L373.929 10.376ZM374.025 57.704L373.3 57.016L373.299 57.0163L374.025 57.704ZM340.041 55.016H339.041V56.016H340.041V55.016ZM360.393 53.384L360.793 54.3007L360.803 54.2964L360.812 54.292L360.393 53.384ZM365.961 47.24L365.041 46.8484L365.037 46.8582L365.961 47.24ZM360.777 15.56L361.186 14.6472L361.186 14.6472L360.777 15.56ZM340.041 13.928V12.928H339.041V13.928H340.041ZM328.081 65V3.17599H326.081V65H328.081ZM327.081 4.17599H353.001V2.17599H327.081V4.17599ZM353.001 4.17599C362.118 4.17599 368.792 6.53178 373.213 11.0735L374.646 9.67851C369.723 4.62022 362.445 2.17599 353.001 2.17599V4.17599ZM373.222 11.0831C377.677 15.5382 380.033 23.2069 380.033 34.376H382.033C382.033 23.0171 379.653 14.6857 374.636 9.66889L373.222 11.0831ZM380.033 34.376C380.033 44.8833 377.719 52.3548 373.3 57.016L374.751 58.392C379.676 53.1972 382.033 45.1167 382.033 34.376H380.033ZM373.299 57.0163C368.946 61.6113 362.248 64 353.001 64V66C362.571 66 369.889 63.5247 374.751 58.3917L373.299 57.0163ZM353.001 64H327.081V66H353.001V64ZM340.041 56.016H351.177V54.016H340.041V56.016ZM351.177 56.016C354.919 56.016 358.136 55.4589 360.793 54.3007L359.994 52.4673C357.659 53.4851 354.732 54.016 351.177 54.016V56.016ZM360.812 54.292C363.573 53.0178 365.59 50.759 366.886 47.6218L365.037 46.8582C363.901 49.609 362.206 51.4462 359.974 52.476L360.812 54.292ZM366.882 47.6316C368.239 44.442 368.881 39.9971 368.881 34.376H366.881C366.881 39.8909 366.244 44.022 365.041 46.8484L366.882 47.6316ZM368.881 34.376C368.881 28.7635 368.304 24.3603 367.085 21.2436L365.222 21.9724C366.307 24.7437 366.881 28.8525 366.881 34.376H368.881ZM367.085 21.2436C365.856 18.1041 363.901 15.862 361.186 14.6472L360.369 16.4728C362.518 17.434 364.147 19.2239 365.222 21.9724L367.085 21.2436ZM361.186 14.6472C358.578 13.4807 355.223 12.928 351.177 12.928V14.928C355.067 14.928 358.113 15.4633 360.369 16.4728L361.186 14.6472ZM351.177 12.928H340.041V14.928H351.177V12.928ZM339.041 13.928V55.016H341.041V13.928H339.041ZM400.161 65L399.194 65.255L399.391 66H400.161V65ZM388.161 19.496V18.496H386.863L387.194 19.751L388.161 19.496ZM401.121 19.496L402.095 19.2684L401.915 18.496H401.121V19.496ZM408.033 49.064L407.06 49.2916L407.883 52.8155L408.986 49.3686L408.033 49.064ZM415.617 25.352L416.57 25.6566L416.617 25.508V25.352H415.617ZM415.617 19.496V18.496H414.617V19.496H415.617ZM425.505 19.496L426.465 19.2155L426.255 18.496H425.505V19.496ZM434.145 49.064L433.186 49.3445L434.266 53.0436L435.121 49.2856L434.145 49.064ZM440.865 19.496V18.496H440.067L439.89 19.2744L440.865 19.496ZM453.729 19.496L454.697 19.7491L455.025 18.496H453.729V19.496ZM441.825 65V66H442.597L442.793 65.2531L441.825 65ZM429.921 65L428.971 65.3121L429.197 66H429.921V65ZM421.185 38.408L422.135 38.0959L421.196 35.2354L420.237 38.0897L421.185 38.408ZM412.257 65V66H412.976L413.205 65.3183L412.257 65ZM401.128 64.745L389.128 19.241L387.194 19.751L399.194 65.255L401.128 64.745ZM388.161 20.496H401.121V18.496H388.161V20.496ZM400.148 19.7236L407.06 49.2916L409.007 48.8364L402.095 19.2684L400.148 19.7236ZM408.986 49.3686L416.57 25.6566L414.665 25.0474L407.081 48.7594L408.986 49.3686ZM416.617 25.352V19.496H414.617V25.352H416.617ZM415.617 20.496H425.505V18.496H415.617V20.496ZM424.546 19.7765L433.186 49.3445L435.105 48.7835L426.465 19.2155L424.546 19.7765ZM435.121 49.2856L441.841 19.7176L439.89 19.2744L433.17 48.8424L435.121 49.2856ZM440.865 20.496H453.729V18.496H440.865V20.496ZM452.762 19.2429L440.858 64.7469L442.793 65.2531L454.697 19.7491L452.762 19.2429ZM441.825 64H429.921V66H441.825V64ZM430.871 64.6879L422.135 38.0959L420.235 38.7201L428.971 65.3121L430.871 64.6879ZM420.237 38.0897L411.309 64.6817L413.205 65.3183L422.133 38.7263L420.237 38.0897ZM412.257 64H400.161V66H412.257V64ZM462.531 11.144H461.531V12.144H462.531V11.144ZM462.531 0.967995V-0.0320053H461.531V0.967995H462.531ZM476.643 0.967995H477.643V-0.0320053H476.643V0.967995ZM476.643 11.144V12.144H477.643V11.144H476.643ZM463.587 65H462.587V66H463.587V65ZM463.587 29.096H464.587V28.096H463.587V29.096ZM456.771 29.096L455.778 28.9769L455.643 30.096H456.771V29.096ZM457.923 19.496V18.496H457.035L456.93 19.3769L457.923 19.496ZM476.547 19.496H477.547V18.496H476.547V19.496ZM476.547 65V66H477.547V65H476.547ZM463.531 11.144V0.967995H461.531V11.144H463.531ZM462.531 1.96799H476.643V-0.0320053H462.531V1.96799ZM475.643 0.967995V11.144H477.643V0.967995H475.643ZM476.643 10.144H462.531V12.144H476.643V10.144ZM464.587 65V29.096H462.587V65H464.587ZM463.587 28.096H456.771V30.096H463.587V28.096ZM457.764 29.2151L458.916 19.6151L456.93 19.3769L455.778 28.9769L457.764 29.2151ZM457.923 20.496H476.547V18.496H457.923V20.496ZM475.547 19.496V65H477.547V19.496H475.547ZM476.547 64H463.587V66H476.547V64ZM516.739 65.096L516.572 66.0819L516.575 66.0824L516.739 65.096ZM507.907 62.6H506.907V63.255L507.508 63.5167L507.907 62.6ZM507.907 51.176L508.286 50.2505L506.907 49.6865V51.176H507.907ZM517.027 53.96L517.238 52.9825L517.238 52.9825L517.027 53.96ZM536.515 53.768L536.149 52.8376L536.149 52.8376L536.515 53.768ZM538.339 43.688L539.111 43.0523L539.111 43.0523L538.339 43.688ZM533.635 40.808L533.254 41.7327L533.271 41.7393L533.287 41.7454L533.635 40.808ZM524.323 37.832L524.056 38.7957L524.063 38.7975L524.323 37.832ZM512.995 6.824L513.589 7.62843L513.589 7.62843L512.995 6.824ZM549.283 4.808H550.283V4.10175L549.618 3.86557L549.283 4.808ZM549.283 16.232L548.93 17.1674L550.283 17.6791V16.232H549.283ZM523.363 14.6L523.703 15.5406L523.714 15.5364L523.726 15.532L523.363 14.6ZM521.155 23.816L520.399 24.4709L520.399 24.4709L521.155 23.816ZM525.379 26.408L525.018 27.3406L525.028 27.3443L525.379 26.408ZM533.923 29L534.18 28.0336L534.178 28.0329L533.923 29ZM545.635 33.8L546.194 32.9709L546.194 32.9709L545.635 33.8ZM551.299 40.136L550.381 40.5329L550.386 40.5433L550.39 40.5535L551.299 40.136ZM546.787 61.064L547.41 61.8461L547.41 61.8461L546.787 61.064ZM527.875 64.96C523.955 64.96 520.299 64.6755 516.904 64.1096L516.575 66.0824C520.092 66.6685 523.859 66.96 527.875 66.96V64.96ZM516.907 64.1101C513.575 63.5443 510.712 62.7317 508.307 61.6833L507.508 63.5167C510.094 64.6443 513.12 65.4957 516.572 66.0819L516.907 64.1101ZM508.907 62.6V51.176H506.907V62.6H508.907ZM507.528 52.1015C510.404 53.2778 513.5 54.2223 516.816 54.9375L517.238 52.9825C514.026 52.2897 511.043 51.3782 508.286 50.2505L507.528 52.1015ZM516.816 54.9375C520.145 55.6555 523.416 56.016 526.627 56.016V54.016C523.566 54.016 520.437 53.6725 517.238 52.9825L516.816 54.9375ZM526.627 56.016C531.135 56.016 534.587 55.6022 536.882 54.6984L536.149 52.8376C534.219 53.5978 531.08 54.016 526.627 54.016V56.016ZM536.882 54.6984C538.141 54.2023 539.117 53.3721 539.764 52.2162C540.4 51.0788 540.683 49.6879 540.683 48.104H538.683C538.683 49.4641 538.438 50.4892 538.018 51.2398C537.609 51.9719 537.001 52.5017 536.149 52.8376L536.882 54.6984ZM540.683 48.104C540.683 46.0902 540.196 44.3693 539.111 43.0523L537.567 44.3237C538.275 45.1827 538.683 46.4058 538.683 48.104H540.683ZM539.111 43.0523C538.05 41.7637 536.287 40.7264 533.983 39.8706L533.287 41.7454C535.463 42.5536 536.836 43.4363 537.567 44.3237L539.111 43.0523ZM534.016 39.8833C531.782 38.9634 528.63 37.9585 524.584 36.8665L524.063 38.7975C528.08 39.8815 531.136 40.8606 533.254 41.7327L534.016 39.8833ZM524.59 36.8683C518.181 35.0916 513.844 32.9106 511.407 30.4135L509.976 31.8105C512.786 34.6894 517.537 36.9884 524.056 38.7957L524.59 36.8683ZM511.407 30.4135C509.01 27.9578 507.755 24.5224 507.755 19.976H505.755C505.755 24.9016 507.125 28.8902 509.976 31.8105L511.407 30.4135ZM507.755 19.976C507.755 14.5601 509.713 10.4908 513.589 7.62843L512.401 6.01957C507.957 9.30118 505.755 13.9999 505.755 19.976H507.755ZM513.589 7.62843C517.507 4.73513 523.309 3.216 531.139 3.216V1.216C523.097 1.216 516.803 2.76886 512.401 6.01957L513.589 7.62843ZM531.139 3.216C534.806 3.216 538.208 3.4689 541.349 3.97144L541.665 1.99656C538.406 1.4751 534.897 1.216 531.139 1.216V3.216ZM541.349 3.97144C544.517 4.47837 547.044 5.07453 548.949 5.75042L549.618 3.86557C547.554 3.13346 544.897 2.51362 541.665 1.99656L541.349 3.97144ZM548.283 4.808V16.232H550.283V4.808H548.283ZM549.637 15.2966C544.274 13.2692 538.682 12.256 532.867 12.256V14.256C538.444 14.256 543.796 15.2268 548.93 17.1674L549.637 15.2966ZM532.867 12.256C528.779 12.256 525.47 12.7076 523.001 13.668L523.726 15.532C525.864 14.7004 528.891 14.256 532.867 14.256V12.256ZM523.023 13.6594C521.697 14.1384 520.642 14.9196 519.93 16.0272C519.224 17.1254 518.907 18.4635 518.907 19.976H520.907C520.907 18.7365 521.166 17.8026 521.612 17.1088C522.052 16.4244 522.725 15.8936 523.703 15.5406L523.023 13.6594ZM518.907 19.976C518.907 21.7522 519.372 23.2857 520.399 24.4709L521.911 23.1611C521.274 22.4263 520.907 21.3998 520.907 19.976H518.907ZM520.399 24.4709C521.388 25.6111 522.972 26.5486 525.018 27.3406L525.74 25.4754C523.818 24.7314 522.587 23.9409 521.911 23.1611L520.399 24.4709ZM525.028 27.3443C527.122 28.1297 530.008 29.0037 533.669 29.9671L534.178 28.0329C530.543 27.0763 527.732 26.2223 525.73 25.4717L525.028 27.3443ZM533.666 29.9664C538.669 31.2963 542.454 32.8606 545.076 34.6291L546.194 32.9709C543.312 31.0274 539.289 29.3917 534.18 28.0336L533.666 29.9664ZM545.076 34.6291C547.714 36.4085 549.452 38.3841 550.381 40.5329L552.217 39.7391C551.098 37.1519 549.06 34.9035 546.194 32.9709L545.076 34.6291ZM550.39 40.5535C551.411 42.7745 551.931 45.2854 551.931 48.104H553.931C553.931 45.0346 553.363 42.2335 552.208 39.7185L550.39 40.5535ZM551.931 48.104C551.931 53.1849 550.015 57.2134 546.164 60.2819L547.41 61.8461C551.752 58.3866 553.931 53.7751 553.931 48.104H551.931ZM546.164 60.2819C542.326 63.3405 536.292 64.96 527.875 64.96V66.96C536.482 66.96 543.056 65.3155 547.41 61.8461L546.164 60.2819ZM566.917 60.104L566.265 60.8618L566.271 60.867L566.917 60.104ZM565.765 24.968L565.026 24.2948L565.025 24.2953L565.765 24.968ZM599.269 24.104L598.562 24.8111L598.568 24.8172L598.574 24.8232L599.269 24.104ZM604.933 46.76V47.76H605.933V46.76H604.933ZM572.005 46.76V45.76H570.794L571.023 46.9495L572.005 46.76ZM576.997 54.248L576.541 55.1381L576.55 55.1424L576.997 54.248ZM595.717 55.592L595.545 54.607L595.54 54.6077L595.717 55.592ZM602.245 53.864H603.245V52.3967L601.879 52.9332L602.245 53.864ZM602.245 63.08L602.659 63.9904L603.245 63.7239V63.08H602.245ZM594.853 65.192L594.696 64.2044L594.685 64.2062L594.674 64.2081L594.853 65.192ZM572.005 38.792H571.005V39.792H572.005V38.792ZM593.605 38.792V39.792H594.605V38.792H593.605ZM591.301 30.152L590.594 30.8591L590.602 30.8666L590.609 30.874L591.301 30.152ZM574.501 30.44L573.794 29.7329L573.787 29.7396L573.781 29.7464L574.501 30.44ZM585.637 64.96C577.929 64.96 571.942 63.0506 567.564 59.341L566.271 60.867C571.108 64.9654 577.601 66.96 585.637 66.96V64.96ZM567.57 59.3462C563.247 55.6238 561.005 49.9586 561.005 42.152H559.005C559.005 50.3454 561.371 56.6482 566.265 60.8618L567.57 59.3462ZM561.005 42.152C561.005 35.0999 562.874 29.6353 566.505 25.6407L565.025 24.2953C560.977 28.7487 559.005 34.7401 559.005 42.152H561.005ZM566.505 25.6412C570.163 21.6231 575.647 19.536 583.141 19.536V17.536C575.276 17.536 569.175 19.7369 565.026 24.2948L566.505 25.6412ZM583.141 19.536C590.009 19.536 595.095 21.3436 598.562 24.8111L599.976 23.3969C596.02 19.4404 590.353 17.536 583.141 17.536V19.536ZM598.574 24.8232C602.128 28.2569 603.933 32.7835 603.933 38.504H605.933C605.933 32.3205 603.962 27.2471 599.964 23.3848L598.574 24.8232ZM603.933 38.504V46.76H605.933V38.504H603.933ZM604.933 45.76H572.005V47.76H604.933V45.76ZM571.023 46.9495C571.769 50.8132 573.574 53.6181 576.541 55.138L577.453 53.358C575.172 52.1899 573.649 50.0028 572.987 46.5705L571.023 46.9495ZM576.55 55.1424C579.437 56.5859 583.391 57.264 588.325 57.264V55.264C583.531 55.264 579.933 54.5981 577.444 53.3536L576.55 55.1424ZM588.325 57.264C590.819 57.264 593.342 57.0343 595.894 56.5763L595.54 54.6077C593.1 55.0457 590.695 55.264 588.325 55.264V57.264ZM595.89 56.577C598.494 56.1212 600.739 55.5301 602.611 54.7948L601.879 52.9332C600.167 53.6059 598.06 54.1668 595.545 54.607L595.89 56.577ZM601.245 53.864V63.08H603.245V53.864H601.245ZM601.831 62.1696C599.817 63.0852 597.443 63.7674 594.696 64.2044L595.01 66.1796C597.895 65.7206 600.449 64.9948 602.659 63.9904L601.831 62.1696ZM594.674 64.2081C591.926 64.7078 588.915 64.96 585.637 64.96V66.96C589.016 66.96 592.148 66.7002 595.032 66.1759L594.674 64.2081ZM572.005 39.792H593.605V37.792H572.005V39.792ZM594.605 38.792V36.296H592.605V38.792H594.605ZM594.605 36.296C594.605 33.4674 593.77 31.133 591.993 29.43L590.609 30.874C591.904 32.115 592.605 33.8766 592.605 36.296H594.605ZM592.008 29.4449C590.192 27.6282 587.269 26.848 583.525 26.848V28.848C587.078 28.848 589.339 29.6038 590.594 30.8591L592.008 29.4449ZM583.525 26.848C579.157 26.848 575.809 27.718 573.794 29.7329L575.208 31.1471C576.649 29.706 579.317 28.848 583.525 28.848V26.848ZM573.781 29.7464C571.856 31.7457 571.005 34.842 571.005 38.792H573.005C573.005 35.062 573.819 32.5903 575.221 31.1336L573.781 29.7464ZM617.471 11.144H616.471V12.144H617.471V11.144ZM617.471 0.967995V-0.0320053H616.471V0.967995H617.471ZM631.583 0.967995H632.583V-0.0320053H631.583V0.967995ZM631.583 11.144V12.144H632.583V11.144H631.583ZM605.471 85.736H604.471V86.413L605.099 86.6645L605.471 85.736ZM605.471 76.808L605.769 75.8535L604.471 75.4478V76.808H605.471ZM608.447 77.48L608.631 76.4971L608.605 76.4923L608.579 76.4888L608.447 77.48ZM616.895 76.136L616.231 75.3886L616.219 75.3986L616.208 75.409L616.895 76.136ZM618.623 29.096H619.623V28.096H618.623V29.096ZM611.807 29.096L610.814 28.9769L610.68 30.096H611.807V29.096ZM612.959 19.496V18.496H612.072L611.966 19.3769L612.959 19.496ZM631.583 19.496H632.583V18.496H631.583V19.496ZM627.647 83.24L626.923 82.5499L626.915 82.5585L626.907 82.5673L627.647 83.24ZM618.471 11.144V0.967995H616.471V11.144H618.471ZM617.471 1.96799H631.583V-0.0320053H617.471V1.96799ZM630.583 0.967995V11.144H632.583V0.967995H630.583ZM631.583 10.144H617.471V12.144H631.583V10.144ZM615.839 86.464C611.898 86.464 608.575 85.9004 605.842 84.8075L605.099 86.6645C608.127 87.8756 611.716 88.464 615.839 88.464V86.464ZM606.471 85.736V76.808H604.471V85.736H606.471ZM605.173 77.7625C606.245 78.0976 607.293 78.335 608.315 78.4712L608.579 76.4888C607.681 76.369 606.745 76.1584 605.769 75.8535L605.173 77.7625ZM608.263 78.4629C609.333 78.6636 610.324 78.768 611.231 78.768V76.768C610.474 76.768 609.609 76.6804 608.631 76.4971L608.263 78.4629ZM611.231 78.768C613.953 78.768 616.154 78.2107 617.581 76.863L616.208 75.409C615.331 76.2373 613.757 76.768 611.231 76.768V78.768ZM617.559 76.8834C619.012 75.592 619.623 73.5911 619.623 71.144H617.623C617.623 73.3049 617.082 74.632 616.231 75.3886L617.559 76.8834ZM619.623 71.144V29.096H617.623V71.144H619.623ZM618.623 28.096H611.807V30.096H618.623V28.096ZM612.8 29.2151L613.952 19.6151L611.966 19.3769L610.814 28.9769L612.8 29.2151ZM612.959 20.496H631.583V18.496H612.959V20.496ZM630.583 19.496V72.392H632.583V19.496H630.583ZM630.583 72.392C630.583 76.664 629.339 80.0165 626.923 82.5499L628.371 83.9301C631.203 80.9595 632.583 77.08 632.583 72.392H630.583ZM626.907 82.5673C624.602 85.1027 620.984 86.464 615.839 86.464V88.464C621.318 88.464 625.572 87.0093 628.387 83.9127L626.907 82.5673ZM648.884 64.424L648.476 65.3368L648.49 65.3432L648.504 65.3492L648.884 64.424ZM642.932 59.72L642.111 60.2918L642.121 60.3061L642.132 60.32L642.932 59.72ZM645.428 41.096L644.785 40.3303L644.777 40.3367L645.428 41.096ZM672.98 37.064V38.064H673.98V37.064H672.98ZM670.58 29.864L669.98 30.664L669.988 30.6698L669.996 30.6755L670.58 29.864ZM646.196 30.536H645.196V31.9234L646.512 31.4847L646.196 30.536ZM646.196 21.416L645.829 20.4856L645.196 20.7351V21.416H646.196ZM653.876 19.4L654.044 20.3858L654.052 20.3844L654.06 20.3829L653.876 19.4ZM679.7 22.76L679.095 23.5567L679.103 23.5625L679.111 23.5681L679.7 22.76ZM685.364 65V66H686.364V65H685.364ZM674.132 65L673.145 65.1607L673.282 66H674.132V65ZM673.46 60.872L674.447 60.7113L674.154 58.9117L672.794 60.1261L673.46 60.872ZM672.98 52.328L673.751 52.9649L673.98 52.6876V52.328H672.98ZM672.98 45.128H673.98V44.128H672.98V45.128ZM656.948 64.96C654.189 64.96 651.631 64.4702 649.263 63.4988L648.504 65.3492C651.129 66.4258 653.947 66.96 656.948 66.96V64.96ZM649.292 63.5112C647.009 62.4896 645.162 61.0265 643.732 59.12L642.132 60.32C643.774 62.5095 645.895 64.1824 648.476 65.3368L649.292 63.5112ZM643.752 59.1482C642.421 57.2376 641.724 54.8248 641.724 51.848H639.724C639.724 55.1432 640.499 57.9784 642.111 60.2918L643.752 59.1482ZM641.724 51.848C641.724 47.632 643.185 44.3358 646.079 41.8553L644.777 40.3367C641.399 43.2322 639.724 47.104 639.724 51.848H641.724ZM646.071 41.8617C649.021 39.3835 653.457 38.064 659.54 38.064V36.064C653.207 36.064 648.234 37.4325 644.785 40.3303L646.071 41.8617ZM659.54 38.064H672.98V36.064H659.54V38.064ZM673.98 37.064V35.816H671.98V37.064H673.98ZM673.98 35.816C673.98 32.825 673.125 30.4642 671.164 29.0525L669.996 30.6755C671.235 31.5678 671.98 33.175 671.98 35.816H673.98ZM671.18 29.064C670.232 28.3533 668.888 27.8842 667.257 27.5845C665.608 27.2816 663.574 27.136 661.172 27.136V29.136C663.505 29.136 665.408 29.2784 666.895 29.5515C668.399 29.8278 669.392 30.2227 669.98 30.664L671.18 29.064ZM661.172 27.136C655.883 27.136 650.784 27.9525 645.88 29.5873L646.512 31.4847C651.208 29.9195 656.093 29.136 661.172 29.136V27.136ZM647.196 30.536V21.416H645.196V30.536H647.196ZM646.562 22.3464C648.593 21.5466 651.082 20.8899 654.044 20.3858L653.708 18.4142C650.654 18.9341 648.023 19.6214 645.829 20.4856L646.562 22.3464ZM654.06 20.3829C657.063 19.8198 660.329 19.536 663.86 19.536V17.536C660.223 17.536 656.832 17.8282 653.692 18.4171L654.06 20.3829ZM663.86 19.536C670.588 19.536 675.622 20.9217 679.095 23.5567L680.304 21.9633C676.354 18.9663 670.828 17.536 663.86 17.536V19.536ZM679.111 23.5681C682.551 26.0752 684.364 30.1693 684.364 36.104H686.364C686.364 29.7507 684.401 24.9488 680.289 21.9519L679.111 23.5681ZM684.364 36.104V65H686.364V36.104H684.364ZM685.364 64H674.132V66H685.364V64ZM675.119 64.8393L674.447 60.7113L672.473 61.0327L673.145 65.1607L675.119 64.8393ZM672.794 60.1261C671.116 61.6243 669.03 62.8103 666.513 63.6697L667.159 65.5623C669.89 64.6297 672.22 63.3197 674.126 61.6179L672.794 60.1261ZM666.513 63.6697C664.027 64.5184 660.849 64.96 656.948 64.96V66.96C660.983 66.96 664.397 66.5056 667.159 65.5623L666.513 63.6697ZM660.5 58.416C663.489 58.416 666.132 57.9179 668.402 56.8864L667.574 55.0656C665.619 55.9541 663.271 56.416 660.5 56.416V58.416ZM668.402 56.8864C670.623 55.8768 672.42 54.5765 673.751 52.9649L672.209 51.6911C671.108 53.0235 669.577 54.1552 667.574 55.0656L668.402 56.8864ZM673.98 52.328V45.128H671.98V52.328H673.98ZM672.98 44.128H659.828V46.128H672.98V44.128ZM659.828 44.128C657.188 44.128 655.022 44.667 653.505 45.9158C651.949 47.1953 651.244 49.0768 651.244 51.368H653.244C653.244 49.4992 653.802 48.2607 654.775 47.4602C655.786 46.629 657.412 46.128 659.828 46.128V44.128ZM651.244 51.368C651.244 53.6369 652.035 55.4786 653.717 56.7107C655.341 57.9003 657.655 58.416 660.5 58.416V56.416C657.84 56.416 656.027 55.9237 654.899 55.0973C653.829 54.3134 653.244 53.1311 653.244 51.368H651.244ZM695.8 65H694.8V66H695.8V65ZM695.8 0.295998V-0.704002H694.8V0.295998H695.8ZM708.76 0.295998H709.76V-0.704002H708.76V0.295998ZM708.76 23.336H707.76V25.3498L709.365 24.1327L708.76 23.336ZM741.592 65V66H742.592V65H741.592ZM728.632 65H727.632V66H728.632V65ZM726.712 29.96L725.987 30.6487L725.996 30.658L726.005 30.6671L726.712 29.96ZM713.752 29.384L713.351 28.4678L713.341 28.4726L713.752 29.384ZM708.76 32.744L708.053 32.0369L707.76 32.3298V32.744H708.76ZM708.76 65V66H709.76V65H708.76ZM696.8 65V0.295998H694.8V65H696.8ZM695.8 1.296H708.76V-0.704002H695.8V1.296ZM707.76 0.295998V23.336H709.76V0.295998H707.76ZM709.365 24.1327C711.117 22.8033 713.286 21.6973 715.892 20.8287L715.26 18.9313C712.49 19.8547 710.115 21.0527 708.156 22.5393L709.365 24.1327ZM715.892 20.8287C718.468 19.9701 721.272 19.536 724.312 19.536V17.536C721.08 17.536 718.06 17.9979 715.26 18.9313L715.892 20.8287ZM724.312 19.536C730.199 19.536 734.264 20.9166 736.749 23.4589L738.179 22.0611C735.16 18.9714 730.457 17.536 724.312 17.536V19.536ZM736.749 23.4589C739.245 26.0133 740.592 30.0616 740.592 35.816H742.592C742.592 29.7944 741.187 25.1387 738.179 22.0611L736.749 23.4589ZM740.592 35.816V65H742.592V35.816H740.592ZM741.592 64H728.632V66H741.592V64ZM729.632 65V36.488H727.632V65H729.632ZM729.632 36.488C729.632 33.3242 728.981 30.8151 727.419 29.2529L726.005 30.6671C727.003 31.6649 727.632 33.5078 727.632 36.488H729.632ZM727.437 29.2712C725.919 27.6735 723.241 27.04 719.8 27.04V29.04C723.143 29.04 725.073 29.6865 725.987 30.6487L727.437 29.2712ZM719.8 27.04C717.662 27.04 715.51 27.5236 713.351 28.4678L714.153 30.3002C716.091 29.4524 717.971 29.04 719.8 29.04V27.04ZM713.341 28.4726C711.262 29.4112 709.494 30.5961 708.053 32.0369L709.467 33.4511C710.714 32.2039 712.274 31.1488 714.164 30.2954L713.341 28.4726ZM707.76 32.744V65H709.76V32.744H707.76ZM708.76 64H695.8V66H708.76V64ZM758.48 61.832L757.739 62.5039L757.748 62.5131L758.48 61.832ZM754.736 29.48H755.736V28.48H754.736V29.48ZM748.304 29.48H747.304V30.48H748.304V29.48ZM748.304 19.496V18.496H747.304V19.496H748.304ZM754.736 19.496V20.496H755.736V19.496H754.736ZM754.736 9.704L754.452 8.7452L753.736 8.95732V9.704H754.736ZM767.696 5.86399H768.696V4.52473L767.412 4.9052L767.696 5.86399ZM767.696 19.496H766.696V20.496H767.696V19.496ZM779.216 19.496L780.213 19.5727L780.296 18.496H779.216V19.496ZM778.448 29.48V30.48H779.374L779.445 29.5567L778.448 29.48ZM767.696 29.48V28.48H766.696V29.48H767.696ZM769.424 54.92L768.784 55.6882L768.797 55.699L768.81 55.7094L769.424 54.92ZM780.368 55.304H781.368V53.9166L780.052 54.3553L780.368 55.304ZM780.368 64.232L780.747 65.1575L781.368 64.9034V64.232H780.368ZM775.76 65.48L775.608 64.4916L775.589 64.4945L775.571 64.498L775.76 65.48ZM770.192 64.96C765.109 64.96 761.518 63.6293 759.212 61.1509L757.748 62.5131C760.562 65.5387 764.779 66.96 770.192 66.96V64.96ZM759.221 61.1602C756.933 58.6385 755.736 55.1582 755.736 50.6H753.736C753.736 55.5138 755.034 59.5215 757.739 62.5038L759.221 61.1602ZM755.736 50.6V29.48H753.736V50.6H755.736ZM754.736 28.48H748.304V30.48H754.736V28.48ZM749.304 29.48V19.496H747.304V29.48H749.304ZM748.304 20.496H754.736V18.496H748.304V20.496ZM755.736 19.496V9.704H753.736V19.496H755.736ZM755.02 10.6628L767.98 6.82279L767.412 4.9052L754.452 8.7452L755.02 10.6628ZM766.696 5.86399V19.496H768.696V5.86399H766.696ZM767.696 20.496H779.216V18.496H767.696V20.496ZM778.219 19.4193L777.451 29.4033L779.445 29.5567L780.213 19.5727L778.219 19.4193ZM778.448 28.48H767.696V30.48H778.448V28.48ZM766.696 29.48V49.736H768.696V29.48H766.696ZM766.696 49.736C766.696 52.3367 767.289 54.4425 768.784 55.6882L770.064 54.1518C769.255 53.4775 768.696 52.1273 768.696 49.736H766.696ZM768.81 55.7094C770.221 56.8066 772.281 57.264 774.8 57.264V55.264C772.455 55.264 770.931 54.8254 770.038 54.1306L768.81 55.7094ZM774.8 57.264C776.712 57.264 778.675 56.9223 780.684 56.2527L780.052 54.3553C778.221 54.9657 776.471 55.264 774.8 55.264V57.264ZM779.368 55.304V64.232H781.368V55.304H779.368ZM779.989 63.3065C778.661 63.8497 777.202 64.2463 775.608 64.4916L775.912 66.4684C777.646 66.2017 779.258 65.7663 780.747 65.1575L779.989 63.3065ZM775.571 64.498C773.981 64.8039 772.189 64.96 770.192 64.96V66.96C772.291 66.96 774.211 66.7961 775.949 66.462L775.571 64.498ZM792.011 60.104L791.358 60.8618L791.364 60.867L792.011 60.104ZM790.859 24.968L790.119 24.2948L790.119 24.2953L790.859 24.968ZM824.363 24.104L823.656 24.8111L823.662 24.8172L823.668 24.8232L824.363 24.104ZM830.027 46.76V47.76H831.027V46.76H830.027ZM797.099 46.76V45.76H795.887L796.117 46.9495L797.099 46.76ZM802.091 54.248L801.635 55.1381L801.644 55.1424L802.091 54.248ZM820.811 55.592L820.638 54.607L820.634 54.6077L820.811 55.592ZM827.339 53.864H828.339V52.3967L826.973 52.9332L827.339 53.864ZM827.339 63.08L827.753 63.9904L828.339 63.7239V63.08H827.339ZM819.947 65.192L819.79 64.2044L819.779 64.2062L819.768 64.2081L819.947 65.192ZM797.099 38.792H796.099V39.792H797.099V38.792ZM818.699 38.792V39.792H819.699V38.792H818.699ZM816.395 30.152L815.688 30.8591L815.695 30.8666L815.703 30.874L816.395 30.152ZM799.595 30.44L798.888 29.7329L798.881 29.7396L798.875 29.7464L799.595 30.44ZM810.731 64.96C803.023 64.96 797.036 63.0506 792.657 59.341L791.364 60.867C796.202 64.9654 802.695 66.96 810.731 66.96V64.96ZM792.663 59.3462C788.341 55.6238 786.099 49.9586 786.099 42.152H784.099C784.099 50.3454 786.465 56.6482 791.358 60.8618L792.663 59.3462ZM786.099 42.152C786.099 35.0999 787.967 29.6353 791.599 25.6407L790.119 24.2953C786.07 28.7487 784.099 34.7401 784.099 42.152H786.099ZM791.598 25.6412C795.257 21.6231 800.74 19.536 808.235 19.536V17.536C800.369 17.536 794.269 19.7369 790.119 24.2948L791.598 25.6412ZM808.235 19.536C815.103 19.536 820.188 21.3436 823.656 24.8111L825.07 23.3969C821.113 19.4404 815.447 17.536 808.235 17.536V19.536ZM823.668 24.8232C827.222 28.2569 829.027 32.7835 829.027 38.504H831.027C831.027 32.3205 829.056 27.2471 825.058 23.3848L823.668 24.8232ZM829.027 38.504V46.76H831.027V38.504H829.027ZM830.027 45.76H797.099V47.76H830.027V45.76ZM796.117 46.9495C796.863 50.8132 798.668 53.6181 801.635 55.138L802.547 53.358C800.266 52.1899 798.743 50.0028 798.081 46.5705L796.117 46.9495ZM801.644 55.1424C804.531 56.5859 808.485 57.264 813.419 57.264V55.264C808.625 55.264 805.027 54.5981 802.538 53.3536L801.644 55.1424ZM813.419 57.264C815.913 57.264 818.436 57.0343 820.988 56.5763L820.634 54.6077C818.194 55.0457 815.789 55.264 813.419 55.264V57.264ZM820.983 56.577C823.588 56.1212 825.833 55.5301 827.705 54.7948L826.973 52.9332C825.261 53.6059 823.154 54.1668 820.638 54.607L820.983 56.577ZM826.339 53.864V63.08H828.339V53.864H826.339ZM826.925 62.1696C824.911 63.0852 822.537 63.7674 819.79 64.2044L820.104 66.1796C822.989 65.7206 825.543 64.9948 827.753 63.9904L826.925 62.1696ZM819.768 64.2081C817.02 64.7078 814.008 64.96 810.731 64.96V66.96C814.109 66.96 817.242 66.7002 820.126 66.1759L819.768 64.2081ZM797.099 39.792H818.699V37.792H797.099V39.792ZM819.699 38.792V36.296H817.699V38.792H819.699ZM819.699 36.296C819.699 33.4674 818.864 31.133 817.087 29.43L815.703 30.874C816.998 32.115 817.699 33.8766 817.699 36.296H819.699ZM817.102 29.4449C815.285 27.6282 812.362 26.848 808.619 26.848V28.848C812.171 28.848 814.432 29.6038 815.688 30.8591L817.102 29.4449ZM808.619 26.848C804.251 26.848 800.903 27.718 798.888 29.7329L800.302 31.1471C801.743 29.706 804.411 28.848 808.619 28.848V26.848ZM798.875 29.7464C796.949 31.7457 796.099 34.842 796.099 38.792H798.099C798.099 35.062 798.912 32.5903 800.315 31.1336L798.875 29.7464ZM839.05 65H838.05V66H839.05V65ZM839.05 19.496V18.496H838.05V19.496H839.05ZM851.05 19.496L852.043 19.3745L851.935 18.496H851.05V19.496ZM851.626 24.2L850.634 24.3215L850.824 25.8803L852.156 25.048L851.626 24.2ZM859.21 20.744L859.532 21.6907L859.544 21.6866L859.21 20.744ZM868.234 18.536H869.234V17.3971L868.105 17.5444L868.234 18.536ZM868.234 28.328L868.381 29.3172L869.234 29.1908V28.328H868.234ZM862.57 29.48L862.813 30.4501L862.813 30.4501L862.57 29.48ZM856.714 31.208L856.388 30.2626L856.388 30.2626L856.714 31.208ZM852.01 33.224L851.528 32.3478L851.01 32.6327V33.224H852.01ZM852.01 65V66H853.01V65H852.01ZM840.05 65V19.496H838.05V65H840.05ZM839.05 20.496H851.05V18.496H839.05V20.496ZM850.058 19.6175L850.634 24.3215L852.619 24.0785L852.043 19.3745L850.058 19.6175ZM852.156 25.048C854.122 23.8192 856.576 22.6972 859.532 21.6906L858.888 19.7973C855.828 20.8388 853.226 22.0208 851.096 23.352L852.156 25.048ZM859.544 21.6866C862.556 20.6198 865.496 19.9017 868.363 19.5276L868.105 17.5444C865.085 17.9383 862.008 18.6922 858.876 19.8014L859.544 21.6866ZM867.234 18.536V28.328H869.234V18.536H867.234ZM868.088 27.3388C866.321 27.6004 864.401 27.9915 862.328 28.5099L862.813 30.4501C864.835 29.9445 866.691 29.5676 868.381 29.3172L868.088 27.3388ZM862.328 28.5099C860.254 29.0284 858.274 29.6125 856.388 30.2626L857.04 32.1534C858.867 31.5235 860.791 30.9556 862.813 30.4501L862.328 28.5099ZM856.388 30.2626C854.495 30.9153 852.872 31.6088 851.528 32.3478L852.492 34.1002C853.708 33.4312 855.221 32.7807 857.04 32.1534L856.388 30.2626ZM851.01 33.224V65H853.01V33.224H851.01ZM852.01 64H839.05V66H852.01V64ZM878.196 64.424L877.788 65.3368L877.802 65.3432L877.817 65.3492L878.196 64.424ZM872.244 59.72L871.424 60.2918L871.434 60.3061L871.444 60.32L872.244 59.72ZM874.74 41.096L874.097 40.3303L874.09 40.3367L874.74 41.096ZM902.292 37.064V38.064H903.292V37.064H902.292ZM899.892 29.864L899.292 30.664L899.3 30.6698L899.308 30.6755L899.892 29.864ZM875.508 30.536H874.508V31.9234L875.825 31.4847L875.508 30.536ZM875.508 21.416L875.142 20.4856L874.508 20.7351V21.416H875.508ZM883.188 19.4L883.356 20.3858L883.364 20.3844L883.373 20.3829L883.188 19.4ZM909.012 22.76L908.408 23.5567L908.416 23.5625L908.423 23.5681L909.012 22.76ZM914.676 65V66H915.676V65H914.676ZM903.444 65L902.457 65.1607L902.594 66H903.444V65ZM902.772 60.872L903.759 60.7113L903.466 58.9117L902.106 60.1261L902.772 60.872ZM902.292 52.328L903.063 52.9649L903.292 52.6876V52.328H902.292ZM902.292 45.128H903.292V44.128H902.292V45.128ZM886.26 64.96C883.502 64.96 880.944 64.4702 878.576 63.4988L877.817 65.3492C880.441 66.4258 883.259 66.96 886.26 66.96V64.96ZM878.605 63.5112C876.321 62.4896 874.474 61.0265 873.044 59.12L871.444 60.32C873.086 62.5095 875.208 64.1824 877.788 65.3368L878.605 63.5112ZM873.065 59.1482C871.733 57.2376 871.036 54.8248 871.036 51.848H869.036C869.036 55.1432 869.812 57.9784 871.424 60.2918L873.065 59.1482ZM871.036 51.848C871.036 47.632 872.497 44.3358 875.391 41.8553L874.09 40.3367C870.712 43.2322 869.036 47.104 869.036 51.848H871.036ZM875.384 41.8617C878.334 39.3835 882.769 38.064 888.852 38.064V36.064C882.52 36.064 877.547 37.4325 874.097 40.3303L875.384 41.8617ZM888.852 38.064H902.292V36.064H888.852V38.064ZM903.292 37.064V35.816H901.292V37.064H903.292ZM903.292 35.816C903.292 32.825 902.437 30.4642 900.477 29.0525L899.308 30.6755C900.547 31.5678 901.292 33.175 901.292 35.816H903.292ZM900.492 29.064C899.545 28.3533 898.201 27.8842 896.569 27.5845C894.92 27.2816 892.887 27.136 890.484 27.136V29.136C892.818 29.136 894.72 29.2784 896.208 29.5515C897.712 29.8278 898.704 30.2227 899.292 30.664L900.492 29.064ZM890.484 27.136C885.196 27.136 880.097 27.9525 875.192 29.5873L875.825 31.4847C880.52 29.9195 885.405 29.136 890.484 29.136V27.136ZM876.508 30.536V21.416H874.508V30.536H876.508ZM875.875 22.3464C877.905 21.5466 880.395 20.8899 883.356 20.3858L883.021 18.4142C879.966 18.9341 877.336 19.6214 875.142 20.4856L875.875 22.3464ZM883.373 20.3829C886.376 19.8198 889.641 19.536 893.172 19.536V17.536C889.535 17.536 886.145 17.8282 883.004 18.4171L883.373 20.3829ZM893.172 19.536C899.9 19.536 904.935 20.9217 908.408 23.5567L909.617 21.9633C905.666 18.9663 900.14 17.536 893.172 17.536V19.536ZM908.423 23.5681C911.863 26.0752 913.676 30.1693 913.676 36.104H915.676C915.676 29.7507 913.713 24.9488 909.601 21.9519L908.423 23.5681ZM913.676 36.104V65H915.676V36.104H913.676ZM914.676 64H903.444V66H914.676V64ZM904.431 64.8393L903.759 60.7113L901.785 61.0327L902.457 65.1607L904.431 64.8393ZM902.106 60.1261C900.428 61.6243 898.342 62.8103 895.825 63.6697L896.472 65.5623C899.203 64.6297 901.532 63.3197 903.438 61.6179L902.106 60.1261ZM895.825 63.6697C893.34 64.5184 890.162 64.96 886.26 64.96V66.96C890.295 66.96 893.709 66.5056 896.472 65.5623L895.825 63.6697ZM889.812 58.416C892.802 58.416 895.445 57.9179 897.714 56.8864L896.887 55.0656C894.932 55.9541 892.583 56.416 889.812 56.416V58.416ZM897.714 56.8864C899.935 55.8768 901.732 54.5765 903.063 52.9649L901.521 51.6911C900.421 53.0235 898.89 54.1552 896.887 55.0656L897.714 56.8864ZM903.292 52.328V45.128H901.292V52.328H903.292ZM902.292 44.128H889.14V46.128H902.292V44.128ZM889.14 44.128C886.5 44.128 884.335 44.667 882.817 45.9158C881.262 47.1953 880.556 49.0768 880.556 51.368H882.556C882.556 49.4992 883.115 48.2607 884.088 47.4602C885.098 46.629 886.724 46.128 889.14 46.128V44.128ZM880.556 51.368C880.556 53.6369 881.347 55.4786 883.029 56.7107C884.653 57.9003 886.968 58.416 889.812 58.416V56.416C887.153 56.416 885.339 55.9237 884.211 55.0973C883.141 54.3134 882.556 53.1311 882.556 51.368H880.556Z" fill="#CCCAC8" fill-opacity="0.6" mask="url(#path-1-outside-1_1583_492)"/>
</g>
<defs>
<filter id="filter0_d_1583_492" x="0.912109" y="0.295898" width="917.764" height="95.168" filterUnits="userSpaceOnUse" color-interpolation-filters="sRGB">
<feFlood flood-opacity="0" result="BackgroundImageFix"/>
<feColorMatrix in="SourceAlpha" type="matrix" values="0 0 0 0 0 0 0 0 0 0 0 0 0 0 0 0 0 0 127 0" result="hardAlpha"/>
<feOffset dy="4"/>
<feGaussianBlur stdDeviation="2"/>
<feComposite in2="hardAlpha" operator="out"/>
<feColorMatrix type="matrix" values="0 0 0 0 0 0 0 0 0 0 0 0 0 0 0 0 0 0 0.25 0"/>
<feBlend mode="normal" in2="BackgroundImageFix" result="effect1_dropShadow_1583_492"/>
<feBlend mode="normal" in="SourceGraphic" in2="effect1_dropShadow_1583_492" result="shape"/>
</filter>
</defs>
</svg>
