<svg width="73" height="74" viewBox="0 0 73 74" fill="none" xmlns="http://www.w3.org/2000/svg">
<path d="M31.025 28.9596L27.325 20H21.3125L19 24.7156V34.1467C19 34.1467 31.8441 51.4195 39.8125 53.9521C44.1473 53.9521 47.2125 56.3099 50.9125 53.9521C54.6125 51.5943 56 47.3503 56 47.3503L53.6875 44.9925L50.9125 43.5778L48.6 42.1632H44.9L41.6625 47.3503L33.3375 42.1632L27.325 34.1467L31.025 32.2605V28.9596Z" fill="#FBF1F1" stroke="#70D468" stroke-width="2"/>
<mask id="path-2-inside-1_1710_374" fill="white">
<path fill-rule="evenodd" clip-rule="evenodd" d="M36.7576 72.9557C56.6829 72.9557 72.8356 56.8031 72.8356 36.8778C72.8356 16.9525 56.6829 0.799805 36.7576 0.799805C16.8323 0.799805 0.679688 16.9525 0.679688 36.8778C0.679688 43.4501 2.43712 49.612 5.50768 54.9191L0.980637 73.3197L18.77 68.1587C24.0649 71.2101 30.2074 72.9557 36.7576 72.9557Z"/>
</mask>
<path d="M5.50768 54.9191L7.44976 55.397L7.6422 54.6148L7.23881 53.9176L5.50768 54.9191ZM0.980637 73.3197L-0.96145 72.8418L-1.78904 76.2056L1.53789 75.2405L0.980637 73.3197ZM18.77 68.1587L19.7686 66.4259L19.0307 66.0006L18.2127 66.2379L18.77 68.1587ZM70.8356 36.8778C70.8356 55.6985 55.5784 70.9557 36.7576 70.9557V74.9557C57.7875 74.9557 74.8356 57.9076 74.8356 36.8778H70.8356ZM36.7576 2.7998C55.5784 2.7998 70.8356 18.057 70.8356 36.8778H74.8356C74.8356 15.8479 57.7875 -1.2002 36.7576 -1.2002V2.7998ZM2.67969 36.8778C2.67969 18.057 17.9369 2.7998 36.7576 2.7998V-1.2002C15.7278 -1.2002 -1.32031 15.8479 -1.32031 36.8778H2.67969ZM7.23881 53.9176C4.33965 48.9067 2.67969 43.0891 2.67969 36.8778H-1.32031C-1.32031 43.8111 0.534585 50.3174 3.77654 55.9207L7.23881 53.9176ZM2.92272 73.7975L7.44976 55.397L3.56559 54.4413L-0.96145 72.8418L2.92272 73.7975ZM18.2127 66.2379L0.423388 71.3989L1.53789 75.2405L19.3272 70.0795L18.2127 66.2379ZM36.7576 70.9557C30.5672 70.9557 24.768 69.3069 19.7686 66.4259L17.7714 69.8916C23.3619 73.1133 29.8477 74.9557 36.7576 74.9557V70.9557Z" fill="white" mask="url(#path-2-inside-1_1710_374)"/>
</svg>
